<?xml version="1.0" encoding="UTF-8" standalone="no"?>
<!DOCTYPE svg PUBLIC "-//W3C//DTD SVG 1.1//EN" "http://www.w3.org/Graphics/SVG/1.1/DTD/svg11.dtd">
<svg width="100%" height="100%" viewBox="0 0 1523 696" version="1.1" xmlns="http://www.w3.org/2000/svg" xmlns:xlink="http://www.w3.org/1999/xlink" xml:space="preserve" xmlns:serif="http://www.serif.com/" style="fill-rule:evenodd;clip-rule:evenodd;stroke-linejoin:round;stroke-miterlimit:2;">
    <g transform="matrix(1,0,0,1,-31930.3,-2473.23)">
        <g transform="matrix(2.0666,0,0,2.0666,-33946.2,-1090.88)">
            <path d="M32053.8,1852.29L32053.8,1869.27L32065.9,1869.27L32065.9,1784.39L32080.7,1784.39L32080.7,1750.44L32142.7,1750.44L32142.7,1767.41L32157.6,1767.41L32157.6,1784.39L32169.7,1784.39L32169.7,1767.41L32216.9,1767.41L32216.9,1784.39L32231.7,1784.39L32231.7,1818.34L32246.6,1818.34L32246.6,1852.29L32258.7,1852.29L32258.7,1801.37L32273.5,1801.37L32273.5,1767.41L32288.4,1767.41L32288.4,1750.44L32365.2,1750.44L32365.2,1767.41L32394.9,1767.41L32394.9,1784.39L32409.7,1784.39L32409.7,1852.29L32409.7,1869.27L32421.8,1869.27L32421.8,1784.39L32436.7,1784.39L32436.7,1750.44L32498.7,1750.44L32498.7,1767.41L32513.5,1767.41L32513.5,1784.39L32525.6,1784.39L32525.6,1767.41L32572.8,1767.41L32572.8,1784.39L32587.6,1784.39L32587.6,1818.34L32602.5,1818.34L32602.5,1920.74L32587.6,1920.74L32587.6,1954.69L32572.8,1954.69L32572.8,1971.66L32451.5,1971.66L32451.5,1954.69L32436.7,1954.69L32436.7,1920.74L32424.5,1920.74L32424.5,1954.69L32394.9,1954.69L32394.9,1971.66L32258.7,1971.66L32258.7,1954.69L32243.9,1954.69L32243.9,1920.74L32231.7,1920.74L32231.7,1954.69L32216.9,1954.69L32216.9,1971.66L32095.6,1971.66L32095.6,1954.69L32080.7,1954.69L32080.7,1920.74L32068.6,1920.74L32068.6,1954.69L32038.9,1954.69L32038.9,1971.66L31902.8,1971.66L31902.8,1954.69L31888,1954.69L31888,1852.29L31902.8,1852.29L31902.8,1801.37L31917.6,1801.37L31917.6,1767.41L31932.4,1767.41L31932.4,1750.44L32009.3,1750.44L32009.3,1767.41L32038.9,1767.41L32038.9,1784.39L32053.8,1784.39L32053.8,1852.29ZM32445.4,1793.15L32430.6,1793.15L32430.6,1911.98L32445.4,1911.98L32445.4,1945.93L32460.2,1945.93L32460.2,1962.9L32564.1,1962.9L32564.1,1945.93L32578.9,1945.93L32578.9,1911.98L32593.7,1911.98L32593.7,1827.1L32578.9,1827.1L32578.9,1793.15L32564.1,1793.15L32564.1,1776.17L32534.4,1776.17L32534.4,1793.15L32519.6,1793.15L32519.6,1844.08L32534.4,1844.08L32534.4,1878.03L32519.6,1878.03L32519.6,1895L32504.7,1895L32504.7,1878.03L32489.9,1878.03L32489.9,1827.1L32504.7,1827.1L32504.7,1776.17L32489.9,1776.17L32489.9,1759.2L32445.4,1759.2L32445.4,1793.15ZM32089.5,1793.15L32074.7,1793.15L32074.7,1911.98L32089.5,1911.98L32089.5,1945.93L32104.3,1945.93L32104.3,1962.9L32208.1,1962.9L32208.1,1945.93L32223,1945.93L32223,1911.98L32237.8,1911.98L32237.8,1827.1L32223,1827.1L32223,1793.15L32208.1,1793.15L32208.1,1776.17L32178.5,1776.17L32178.5,1793.15L32163.6,1793.15L32163.6,1844.08L32178.5,1844.08L32178.5,1878.03L32163.6,1878.03L32163.6,1895L32148.8,1895L32148.8,1878.03L32134,1878.03L32134,1827.1L32148.8,1827.1L32148.8,1776.17L32134,1776.17L32134,1759.2L32089.5,1759.2L32089.5,1793.15ZM32297.1,1776.17L32282.3,1776.17L32282.3,1810.12L32267.5,1810.12L32267.5,1861.05L32252.6,1861.05L32252.6,1945.93L32267.5,1945.93L32267.5,1962.9L32386.1,1962.9L32386.1,1945.93L32415.8,1945.93L32415.8,1878.03L32400.9,1878.03L32400.9,1861.05L32386.1,1861.05L32386.1,1844.08L32400.9,1844.08L32400.9,1793.15L32386.1,1793.15L32386.1,1776.17L32356.4,1776.17L32356.4,1759.2L32297.1,1759.2L32297.1,1776.17ZM32341.6,1878.03L32341.6,1911.98L32311.9,1911.98L32311.9,1878.03L32341.6,1878.03ZM32332.8,1886.79L32320.7,1886.79L32320.7,1903.22L32332.8,1903.22L32332.8,1886.79ZM32341.6,1810.12L32341.6,1844.08L32311.9,1844.08L32311.9,1827.1L32326.8,1827.1L32326.8,1810.12L32341.6,1810.12ZM31941.2,1776.17L31926.4,1776.17L31926.4,1810.12L31911.5,1810.12L31911.5,1861.05L31896.7,1861.05L31896.7,1945.93L31911.5,1945.93L31911.5,1962.9L32030.2,1962.9L32030.2,1945.93L32059.8,1945.93L32059.8,1878.03L32045,1878.03L32045,1861.05L32030.2,1861.05L32030.2,1844.08L32045,1844.08L32045,1793.15L32030.2,1793.15L32030.2,1776.17L32000.5,1776.17L32000.5,1759.2L31941.2,1759.2L31941.2,1776.17ZM31985.7,1810.12L31985.7,1844.08L31956,1844.08L31956,1827.1L31970.9,1827.1L31970.9,1810.12L31985.7,1810.12ZM31985.7,1878.03L31985.7,1911.98L31956,1911.98L31956,1878.03L31985.7,1878.03ZM31976.9,1886.79L31964.8,1886.79L31964.8,1903.22L31976.9,1903.22L31976.9,1886.79ZM32510.8,1835.86L32498.7,1835.86L32498.7,1869.27L32510.8,1869.27L32525.6,1869.27L32525.6,1852.83L32510.8,1852.83L32510.8,1835.86ZM32154.9,1835.86L32142.7,1835.86L32142.7,1869.27L32154.9,1869.27L32169.7,1869.27L32169.7,1852.83L32154.9,1852.83L32154.9,1835.86Z"/>
        </g>
        <g transform="matrix(2.0666,0,0,2.0666,-33946.2,-1090.88)">
            <path d="M31888,1966.24L31888,1837.62L31902.8,1837.62L31902.8,1786.7L31917.6,1786.7L31917.6,1752.75L31932.4,1752.75L31932.4,1735.77L32009.3,1735.77L32009.3,1752.75L32038.9,1752.75L32038.9,1769.72L32053.8,1769.72L32053.8,1854.6L32065.9,1854.6L32065.9,1769.72L32080.7,1769.72L32080.7,1735.77L32142.7,1735.77L32142.7,1752.75L32157.6,1752.75L32157.6,1769.72L32169.7,1769.72L32169.7,1752.75L32216.9,1752.75L32216.9,1769.72L32231.7,1769.72L32231.7,1803.67L32246.6,1803.67L32246.6,1837.62L32258.7,1837.62L32258.7,1786.7L32273.5,1786.7L32273.5,1752.75L32288.4,1752.75L32288.4,1735.77L32365.2,1735.77L32365.2,1752.75L32394.9,1752.75L32394.9,1769.72L32409.7,1769.72L32409.7,1854.6L32421.8,1854.6L32421.8,1769.72L32436.7,1769.72L32436.7,1735.77L32498.7,1735.77L32498.7,1752.75L32513.5,1752.75L32513.5,1769.72L32525.6,1769.72L32525.6,1752.75L32572.8,1752.75L32572.8,1769.72L32587.6,1769.72L32587.6,1803.67L32602.5,1803.67L32602.5,1932.29L32587.6,1932.29L32587.6,1966.24L32572.8,1966.24L32572.8,1983.22L32451.5,1983.22L32451.5,1966.24L32436.7,1966.24L32436.7,1932.29L32424.5,1932.29L32424.5,1966.24L32394.9,1966.24L32394.9,1983.22L32258.7,1983.22L32258.7,1966.24L32243.9,1966.24L32243.9,1932.29L32231.7,1932.29L32231.7,1966.24L32216.9,1966.24L32216.9,1983.22L32095.6,1983.22L32095.6,1966.24L32080.7,1966.24L32080.7,1932.29L32068.6,1932.29L32068.6,1966.24L32038.9,1966.24L32038.9,1983.22L31902.8,1983.22L31902.8,1966.24L31888,1966.24ZM32510.8,1854.6L32510.8,1847.41L32498.7,1847.41L32498.7,1854.6L32510.8,1854.6ZM32154.9,1854.6L32154.9,1847.41L32142.7,1847.41L32142.7,1854.6L32154.9,1854.6ZM32002.5,2044.78L32002.5,2039.34L32012,2039.34L32012,2012.09L32007.2,2012.09L32007.2,2006.65L32021.5,2006.65L32021.5,2039.34L32031,2039.34L32031,2044.78L32002.5,2044.78ZM32050.1,2012.09L32050.1,2006.65L32059.6,2006.65L32059.6,2012.09L32050.1,2012.09ZM32040.5,2044.78L32040.5,2039.34L32050.1,2039.34L32050.1,2022.99L32045.3,2022.99L32045.3,2017.54L32059.6,2017.54L32059.6,2039.34L32069.1,2039.34L32069.1,2044.78L32040.5,2044.78ZM32078.6,2044.78L32078.6,2039.34L32088.1,2039.34L32088.1,2012.09L32083.4,2012.09L32083.4,2006.65L32097.7,2006.65L32097.7,2039.34L32107.2,2039.34L32107.2,2044.78L32078.6,2044.78ZM32154.8,2044.78L32154.8,2039.34L32150,2039.34L32150,2006.65L32159.5,2006.65L32159.5,2017.54L32178.6,2017.54L32178.6,2022.99L32183.3,2022.99L32183.3,2039.34L32178.6,2039.34L32178.6,2044.78L32154.8,2044.78ZM32159.5,2039.34L32173.8,2039.34L32173.8,2022.99L32159.5,2022.99L32159.5,2039.34ZM32192.9,2044.78L32192.9,2039.34L32188.1,2039.34L32188.1,2033.89L32192.9,2033.89L32192.9,2028.44L32211.9,2028.44L32211.9,2022.99L32192.9,2022.99L32192.9,2017.54L32216.7,2017.54L32216.7,2022.99L32221.4,2022.99L32221.4,2044.78L32192.9,2044.78ZM32197.6,2039.34L32211.9,2039.34L32211.9,2033.89L32197.6,2033.89L32197.6,2039.34ZM32230.9,2044.78L32230.9,2039.34L32226.2,2039.34L32226.2,2006.65L32235.7,2006.65L32235.7,2017.54L32254.7,2017.54L32254.7,2022.99L32259.5,2022.99L32259.5,2039.34L32254.7,2039.34L32254.7,2044.78L32230.9,2044.78ZM32235.7,2039.34L32250,2039.34L32250,2022.99L32235.7,2022.99L32235.7,2039.34ZM32269,2050.23L32269,2044.78L32288,2044.78L32288,2039.34L32269,2039.34L32269,2033.89L32264.2,2033.89L32264.2,2017.54L32273.8,2017.54L32273.8,2033.89L32288,2033.89L32288,2017.54L32297.6,2017.54L32297.6,2044.78L32292.8,2044.78L32292.8,2050.23L32269,2050.23ZM32345.2,2044.78L32345.2,2039.34L32340.4,2039.34L32340.4,2006.65L32349.9,2006.65L32349.9,2017.54L32369,2017.54L32369,2022.99L32373.7,2022.99L32373.7,2039.34L32369,2039.34L32369,2044.78L32345.2,2044.78ZM32349.9,2039.34L32364.2,2039.34L32364.2,2022.99L32349.9,2022.99L32349.9,2039.34ZM32383.2,2044.78L32383.2,2039.34L32378.5,2039.34L32378.5,2022.99L32383.2,2022.99L32383.2,2017.54L32407,2017.54L32407,2022.99L32411.8,2022.99L32411.8,2039.34L32407,2039.34L32407,2044.78L32383.2,2044.78ZM32388,2039.34L32402.3,2039.34L32402.3,2022.99L32388,2022.99L32388,2039.34ZM32416.6,2044.78L32416.6,2039.34L32440.4,2039.34L32440.4,2033.89L32421.3,2033.89L32421.3,2028.44L32416.6,2028.44L32416.6,2022.99L32421.3,2022.99L32421.3,2017.54L32445.1,2017.54L32445.1,2022.99L32426.1,2022.99L32426.1,2028.44L32445.1,2028.44L32445.1,2033.89L32449.9,2033.89L32449.9,2039.34L32445.1,2039.34L32445.1,2044.78L32416.6,2044.78ZM32454.6,2044.78L32454.6,2039.34L32478.4,2039.34L32478.4,2033.89L32459.4,2033.89L32459.4,2028.44L32454.6,2028.44L32454.6,2022.99L32459.4,2022.99L32459.4,2017.54L32483.2,2017.54L32483.2,2022.99L32464.2,2022.99L32464.2,2028.44L32483.2,2028.44L32483.2,2033.89L32488,2033.89L32488,2039.34L32483.2,2039.34L32483.2,2044.78L32454.6,2044.78Z"/>
            <path d="M32007,2017.08L32002.2,2017.08L32002.2,2001.66L32026.5,2001.66L32026.5,2034.35L32035.6,2034.35L32045.1,2034.35L32045.1,2027.97L32040.3,2027.97L32040.3,2012.56L32045.1,2012.56L32045.1,2001.66L32064.6,2001.66L32064.6,2034.35L32073.6,2034.35L32083.2,2034.35L32083.2,2017.08L32078.4,2017.08L32078.4,2006.65L32078.4,2001.66L32102.6,2001.66L32102.6,2034.35L32112.2,2034.35L32112.2,2049.77L31997.5,2049.77L31997.5,2044.78L31997.5,2034.35L32007,2034.35L32007,2017.08ZM32002.5,2044.78L32031,2044.78L32031,2039.34L32021.5,2039.34L32021.5,2006.65L32007.2,2006.65L32007.2,2012.09L32012,2012.09L32012,2039.34L32002.5,2039.34L32002.5,2044.78ZM32050.1,2012.09L32059.6,2012.09L32059.6,2006.65L32050.1,2006.65L32050.1,2012.09ZM32040.5,2044.78L32069.1,2044.78L32069.1,2039.34L32059.6,2039.34L32059.6,2017.54L32045.3,2017.54L32045.3,2022.99L32050.1,2022.99L32050.1,2039.34L32040.5,2039.34L32040.5,2044.78ZM32078.6,2044.78L32107.2,2044.78L32107.2,2039.34L32097.7,2039.34L32097.7,2006.65L32083.4,2006.65L32083.4,2012.09L32088.1,2012.09L32088.1,2039.34L32078.6,2039.34L32078.6,2044.78ZM32183.6,2018.01L32187.9,2018.01L32187.9,2012.56L32221.2,2012.56L32221.2,2001.66L32240.7,2001.66L32240.7,2012.56L32278.8,2012.56L32278.8,2028.9L32283.1,2028.9L32283.1,2012.56L32302.6,2012.56L32302.6,2049.77L32297.8,2049.77L32297.8,2055.22L32264,2055.22L32264,2050.23L32264,2044.32L32259.7,2044.32L32259.7,2049.77L32187.9,2049.77L32187.9,2044.32L32183.6,2044.32L32183.6,2049.77L32149.8,2049.77L32149.8,2044.32L32145,2044.32L32145,2001.66L32164.5,2001.66L32164.5,2012.56L32183.6,2012.56L32183.6,2018.01ZM32269,2050.23L32292.8,2050.23L32292.8,2044.78L32297.6,2044.78L32297.6,2017.54L32288,2017.54L32288,2033.89L32273.8,2033.89L32273.8,2017.54L32264.2,2017.54L32264.2,2033.89L32269,2033.89L32269,2039.34L32288,2039.34L32288,2044.78L32269,2044.78L32269,2050.23ZM32230.9,2044.78L32254.7,2044.78L32254.7,2039.34L32259.5,2039.34L32259.5,2022.99L32254.7,2022.99L32254.7,2017.54L32235.7,2017.54L32235.7,2006.65L32226.2,2006.65L32226.2,2039.34L32230.9,2039.34L32230.9,2044.78ZM32235.7,2039.34L32235.7,2022.99L32250,2022.99L32250,2039.34L32235.7,2039.34ZM32240.7,2034.35L32245,2034.35L32245,2027.97L32240.7,2027.97L32240.7,2034.35ZM32192.9,2044.78L32221.4,2044.78L32221.4,2022.99L32216.7,2022.99L32216.7,2017.54L32192.9,2017.54L32192.9,2022.99L32211.9,2022.99L32211.9,2028.44L32192.9,2028.44L32192.9,2033.89L32188.1,2033.89L32188.1,2039.34L32192.9,2039.34L32192.9,2044.78ZM32197.6,2039.34L32197.6,2033.89L32211.9,2033.89L32211.9,2039.34L32197.6,2039.34ZM32154.8,2044.78L32178.6,2044.78L32178.6,2039.34L32183.3,2039.34L32183.3,2022.99L32178.6,2022.99L32178.6,2017.54L32159.5,2017.54L32159.5,2006.65L32150,2006.65L32150,2039.34L32154.8,2039.34L32154.8,2044.78ZM32159.5,2039.34L32159.5,2022.99L32173.8,2022.99L32173.8,2039.34L32159.5,2039.34ZM32164.5,2034.35L32168.8,2034.35L32168.8,2027.97L32164.5,2027.97L32164.5,2034.35ZM32373.9,2018.01L32378.3,2018.01L32378.3,2012.56L32412,2012.56L32412,2018.01L32416.3,2018.01L32416.3,2012.56L32450.1,2012.56L32450.1,2018.01L32454.4,2018.01L32454.4,2012.56L32488.2,2012.56L32488.2,2028.9L32492.9,2028.9L32492.9,2044.32L32488.2,2044.32L32488.2,2049.77L32378.3,2049.77L32378.3,2044.32L32373.9,2044.32L32373.9,2049.77L32340.2,2049.77L32340.2,2044.32L32335.4,2044.32L32335.4,2001.66L32354.9,2001.66L32354.9,2012.56L32373.9,2012.56L32373.9,2018.01ZM32421.3,2033.42L32416.8,2033.42L32416.8,2034.35L32440.1,2034.35L32440.1,2033.89L32440.4,2033.89L32440.4,2039.34L32416.6,2039.34L32416.6,2044.78L32445.1,2044.78L32445.1,2039.34L32449.9,2039.34L32449.9,2033.89L32445.1,2033.89L32445.1,2028.44L32426.1,2028.44L32426.1,2022.99L32445.1,2022.99L32445.1,2017.54L32421.3,2017.54L32421.3,2022.99L32416.6,2022.99L32416.6,2028.44L32421.3,2028.44L32421.3,2033.42ZM32454.6,2044.78L32483.2,2044.78L32483.2,2039.34L32488,2039.34L32488,2033.89L32483.2,2033.89L32483.2,2028.44L32464.2,2028.44L32464.2,2022.99L32483.2,2022.99L32483.2,2017.54L32459.4,2017.54L32459.4,2022.99L32454.6,2022.99L32454.6,2028.44L32459.4,2028.44L32459.4,2033.89L32478.4,2033.89L32478.4,2039.34L32454.6,2039.34L32454.6,2044.78ZM32383.2,2044.78L32407,2044.78L32407,2039.34L32411.8,2039.34L32411.8,2022.99L32407,2022.99L32407,2017.54L32383.2,2017.54L32383.2,2022.99L32378.5,2022.99L32378.5,2039.34L32383.2,2039.34L32383.2,2044.78ZM32388,2039.34L32388,2022.99L32402.3,2022.99L32402.3,2039.34L32388,2039.34ZM32393,2034.35L32397.3,2034.35L32397.3,2027.97L32393,2027.97L32393,2034.35ZM32345.2,2044.78L32369,2044.78L32369,2039.34L32373.7,2039.34L32373.7,2022.99L32369,2022.99L32369,2017.54L32349.9,2017.54L32349.9,2006.65L32340.4,2006.65L32340.4,2039.34L32345.2,2039.34L32345.2,2044.78ZM32349.9,2039.34L32349.9,2022.99L32364.2,2022.99L32364.2,2039.34L32349.9,2039.34ZM32354.9,2034.35L32359.2,2034.35L32359.2,2027.97L32354.9,2027.97L32354.9,2034.35ZM31883,1832.64L31897.8,1832.64L31897.8,1781.71L31912.6,1781.71L31912.6,1747.76L31927.5,1747.76L31927.5,1730.79L32014.3,1730.79L32014.3,1747.76L32043.9,1747.76L32043.9,1764.74L32058.8,1764.74L32058.8,1849.62L32060.9,1849.62L32060.9,1764.74L32075.8,1764.74L32075.8,1730.79L32147.7,1730.79L32147.7,1747.76L32162.6,1747.76L32162.6,1764.74L32164.7,1764.74L32164.7,1747.76L32221.9,1747.76L32221.9,1764.74L32236.7,1764.74L32236.7,1798.69L32251.5,1798.69L32251.5,1832.64L32253.7,1832.64L32253.7,1781.71L32268.5,1781.71L32268.5,1747.76L32283.4,1747.76L32283.4,1730.79L32370.2,1730.79L32370.2,1747.76L32399.8,1747.76L32399.8,1764.74L32414.7,1764.74L32414.7,1849.62L32416.8,1849.62L32416.8,1764.74L32431.7,1764.74L32431.7,1730.79L32503.6,1730.79L32503.6,1747.76L32518.5,1747.76L32518.5,1764.74L32520.7,1764.74L32520.7,1747.76L32577.8,1747.76L32577.8,1764.74L32592.6,1764.74L32592.6,1798.69L32607.5,1798.69L32607.5,1937.28L32592.6,1937.28L32592.6,1971.23L32577.8,1971.23L32577.8,1988.2L32446.5,1988.2L32446.5,1971.23L32431.7,1971.23L32431.7,1937.28L32429.5,1937.28L32429.5,1971.23L32399.8,1971.23L32399.8,1988.2L32253.7,1988.2L32253.7,1971.23L32238.9,1971.23L32238.9,1937.28L32236.7,1937.28L32236.7,1971.23L32221.9,1971.23L32221.9,1988.2L32090.6,1988.2L32090.6,1971.23L32075.8,1971.23L32075.8,1937.28L32073.6,1937.28L32073.6,1971.23L32043.9,1971.23L32043.9,1988.2L31897.8,1988.2L31897.8,1971.23L31883,1971.23L31883,1832.64ZM31888,1966.24L31902.8,1966.24L31902.8,1983.22L32038.9,1983.22L32038.9,1966.24L32068.6,1966.24L32068.6,1932.29L32080.7,1932.29L32080.7,1966.24L32095.6,1966.24L32095.6,1983.22L32216.9,1983.22L32216.9,1966.24L32231.7,1966.24L32231.7,1932.29L32243.9,1932.29L32243.9,1966.24L32258.7,1966.24L32258.7,1983.22L32394.9,1983.22L32394.9,1966.24L32424.5,1966.24L32424.5,1932.29L32436.7,1932.29L32436.7,1966.24L32451.5,1966.24L32451.5,1983.22L32572.8,1983.22L32572.8,1966.24L32587.6,1966.24L32587.6,1932.29L32602.5,1932.29L32602.5,1803.67L32587.6,1803.67L32587.6,1769.72L32572.8,1769.72L32572.8,1752.75L32525.6,1752.75L32525.6,1769.72L32513.5,1769.72L32513.5,1752.75L32498.7,1752.75L32498.7,1735.77L32436.7,1735.77L32436.7,1769.72L32421.8,1769.72L32421.8,1854.6L32409.7,1854.6L32409.7,1769.72L32394.9,1769.72L32394.9,1752.75L32365.2,1752.75L32365.2,1735.77L32288.4,1735.77L32288.4,1752.75L32273.5,1752.75L32273.5,1786.7L32258.7,1786.7L32258.7,1837.62L32246.6,1837.62L32246.6,1803.67L32231.7,1803.67L32231.7,1769.72L32216.9,1769.72L32216.9,1752.75L32169.7,1752.75L32169.7,1769.72L32157.6,1769.72L32157.6,1752.75L32142.7,1752.75L32142.7,1735.77L32080.7,1735.77L32080.7,1769.72L32065.9,1769.72L32065.9,1854.6L32053.8,1854.6L32053.8,1769.72L32038.9,1769.72L32038.9,1752.75L32009.3,1752.75L32009.3,1735.77L31932.4,1735.77L31932.4,1752.75L31917.6,1752.75L31917.6,1786.7L31902.8,1786.7L31902.8,1837.62L31888,1837.62L31888,1966.24ZM32510.8,1854.6L32498.7,1854.6L32498.7,1847.41L32510.8,1847.41L32510.8,1854.6ZM32154.9,1854.6L32142.7,1854.6L32142.7,1847.41L32154.9,1847.41L32154.9,1854.6Z" style="fill:white;"/>
        </g>
        <g transform="matrix(2.0666,0,0,2.0666,-33946.2,-1090.88)">
            <path d="M32053.8,1852.29L32053.8,1869.27L32065.9,1869.27L32065.9,1784.39L32080.7,1784.39L32080.7,1750.44L32142.7,1750.44L32142.7,1767.41L32157.6,1767.41L32157.6,1784.39L32169.7,1784.39L32169.7,1767.41L32216.9,1767.41L32216.9,1784.39L32231.7,1784.39L32231.7,1818.34L32246.6,1818.34L32246.6,1852.29L32258.7,1852.29L32258.7,1801.37L32273.5,1801.37L32273.5,1767.41L32288.4,1767.41L32288.4,1750.44L32365.2,1750.44L32365.2,1767.41L32394.9,1767.41L32394.9,1784.39L32409.7,1784.39L32409.7,1852.29L32409.7,1869.27L32421.8,1869.27L32421.8,1784.39L32436.7,1784.39L32436.7,1750.44L32498.7,1750.44L32498.7,1767.41L32513.5,1767.41L32513.5,1784.39L32525.6,1784.39L32525.6,1767.41L32572.8,1767.41L32572.8,1784.39L32587.6,1784.39L32587.6,1818.34L32602.5,1818.34L32602.5,1920.74L32587.6,1920.74L32587.6,1954.69L32572.8,1954.69L32572.8,1971.66L32451.5,1971.66L32451.5,1954.69L32436.7,1954.69L32436.7,1920.74L32424.5,1920.74L32424.5,1954.69L32394.9,1954.69L32394.9,1971.66L32258.7,1971.66L32258.7,1954.69L32243.9,1954.69L32243.9,1920.74L32231.7,1920.74L32231.7,1954.69L32216.9,1954.69L32216.9,1971.66L32095.6,1971.66L32095.6,1954.69L32080.7,1954.69L32080.7,1920.74L32068.6,1920.74L32068.6,1954.69L32038.9,1954.69L32038.9,1971.66L31902.8,1971.66L31902.8,1954.69L31888,1954.69L31888,1852.29L31902.8,1852.29L31902.8,1801.37L31917.6,1801.37L31917.6,1767.41L31932.4,1767.41L31932.4,1750.44L32009.3,1750.44L32009.3,1767.41L32038.9,1767.41L32038.9,1784.39L32053.8,1784.39L32053.8,1852.29ZM32510.8,1835.86L32498.7,1835.86L32498.7,1869.27L32510.8,1869.27L32525.6,1869.27L32525.6,1852.83L32510.8,1852.83L32510.8,1835.86ZM32154.9,1835.86L32142.7,1835.86L32142.7,1869.27L32154.9,1869.27L32169.7,1869.27L32169.7,1852.83L32154.9,1852.83L32154.9,1835.86ZM32445.4,1793.15L32430.6,1793.15L32430.6,1911.98L32445.4,1911.98L32445.4,1945.93L32460.2,1945.93L32460.2,1962.9L32564.1,1962.9L32564.1,1945.93L32578.9,1945.93L32578.9,1911.98L32593.7,1911.98L32593.7,1827.1L32578.9,1827.1L32578.9,1793.15L32564.1,1793.15L32564.1,1776.17L32534.4,1776.17L32534.4,1793.15L32519.6,1793.15L32519.6,1844.08L32534.4,1844.08L32534.4,1878.03L32519.6,1878.03L32519.6,1895L32504.7,1895L32504.7,1878.03L32489.9,1878.03L32489.9,1827.1L32504.7,1827.1L32504.7,1776.17L32489.9,1776.17L32489.9,1759.2L32445.4,1759.2L32445.4,1793.15ZM32297.1,1776.17L32282.3,1776.17L32282.3,1810.12L32267.5,1810.12L32267.5,1861.05L32252.6,1861.05L32252.6,1945.93L32267.5,1945.93L32267.5,1962.9L32386.1,1962.9L32386.1,1945.93L32415.8,1945.93L32415.8,1878.03L32400.9,1878.03L32400.9,1861.05L32386.1,1861.05L32386.1,1844.08L32400.9,1844.08L32400.9,1793.15L32386.1,1793.15L32386.1,1776.17L32356.4,1776.17L32356.4,1759.2L32297.1,1759.2L32297.1,1776.17ZM32341.6,1878.03L32341.6,1911.98L32311.9,1911.98L32311.9,1878.03L32341.6,1878.03ZM32332.8,1886.79L32320.7,1886.79L32320.7,1903.22L32332.8,1903.22L32332.8,1886.79ZM32341.6,1810.12L32341.6,1844.08L32311.9,1844.08L32311.9,1827.1L32326.8,1827.1L32326.8,1810.12L32341.6,1810.12ZM32089.5,1793.15L32074.7,1793.15L32074.7,1911.98L32089.5,1911.98L32089.5,1945.93L32104.3,1945.93L32104.3,1962.9L32208.1,1962.9L32208.1,1945.93L32223,1945.93L32223,1911.98L32237.8,1911.98L32237.8,1827.1L32223,1827.1L32223,1793.15L32208.1,1793.15L32208.1,1776.17L32178.5,1776.17L32178.5,1793.15L32163.6,1793.15L32163.6,1844.08L32178.5,1844.08L32178.5,1878.03L32163.6,1878.03L32163.6,1895L32148.8,1895L32148.8,1878.03L32134,1878.03L32134,1827.1L32148.8,1827.1L32148.8,1776.17L32134,1776.17L32134,1759.2L32089.5,1759.2L32089.5,1793.15ZM31941.2,1776.17L31926.4,1776.17L31926.4,1810.12L31911.5,1810.12L31911.5,1861.05L31896.7,1861.05L31896.7,1945.93L31911.5,1945.93L31911.5,1962.9L32030.2,1962.9L32030.2,1945.93L32059.8,1945.93L32059.8,1878.03L32045,1878.03L32045,1861.05L32030.2,1861.05L32030.2,1844.08L32045,1844.08L32045,1793.15L32030.2,1793.15L32030.2,1776.17L32000.5,1776.17L32000.5,1759.2L31941.2,1759.2L31941.2,1776.17ZM31985.7,1810.12L31985.7,1844.08L31956,1844.08L31956,1827.1L31970.9,1827.1L31970.9,1810.12L31985.7,1810.12ZM31985.7,1878.03L31985.7,1911.98L31956,1911.98L31956,1878.03L31985.7,1878.03ZM31976.9,1886.79L31964.8,1886.79L31964.8,1903.22L31976.9,1903.22L31976.9,1886.79Z"/>
        </g>
        <g>
            <g transform="matrix(2.0666,0,0,2.0666,-33946.2,-1090.88)">
                <path d="M31941.2,1776.17L31941.2,1759.2L32000.5,1759.2L32000.5,1776.17L32030.2,1776.17L32030.2,1793.15L32045,1793.15L32045,1844.08L32030.2,1844.08L32030.2,1861.05L32045,1861.05L32045,1878.03L32059.8,1878.03L32059.8,1945.93L32030.2,1945.93L32030.2,1962.9L31911.5,1962.9L31911.5,1945.93L31896.7,1945.93L31896.7,1861.05L31911.5,1861.05L31911.5,1810.12L31926.4,1810.12L31926.4,1776.17L31941.2,1776.17ZM31985.7,1810.12L31970.9,1810.12L31970.9,1827.1L31956,1827.1L31956,1844.08L31985.7,1844.08L31985.7,1810.12ZM31985.7,1878.03L31956,1878.03L31956,1911.98L31985.7,1911.98L31985.7,1878.03ZM32089.5,1793.15L32089.5,1759.2L32134,1759.2L32134,1776.17L32148.8,1776.17L32148.8,1827.1L32134,1827.1L32134,1878.03L32148.8,1878.03L32148.8,1895L32163.6,1895L32163.6,1878.03L32178.5,1878.03L32178.5,1844.08L32163.6,1844.08L32163.6,1793.15L32178.5,1793.15L32178.5,1776.17L32208.1,1776.17L32208.1,1793.15L32223,1793.15L32223,1827.1L32237.8,1827.1L32237.8,1911.98L32223,1911.98L32223,1945.93L32208.1,1945.93L32208.1,1962.9L32104.3,1962.9L32104.3,1945.93L32089.5,1945.93L32089.5,1911.98L32074.7,1911.98L32074.7,1793.15L32089.5,1793.15ZM32297.1,1776.17L32297.1,1759.2L32356.4,1759.2L32356.4,1776.17L32386.1,1776.17L32386.1,1793.15L32400.9,1793.15L32400.9,1844.08L32386.1,1844.08L32386.1,1861.05L32400.9,1861.05L32400.9,1878.03L32415.8,1878.03L32415.8,1945.93L32386.1,1945.93L32386.1,1962.9L32267.5,1962.9L32267.5,1945.93L32252.6,1945.93L32252.6,1861.05L32267.5,1861.05L32267.5,1810.12L32282.3,1810.12L32282.3,1776.17L32297.1,1776.17ZM32341.6,1878.03L32311.9,1878.03L32311.9,1911.98L32341.6,1911.98L32341.6,1878.03ZM32341.6,1810.12L32326.8,1810.12L32326.8,1827.1L32311.9,1827.1L32311.9,1844.08L32341.6,1844.08L32341.6,1810.12ZM32445.4,1793.15L32445.4,1759.2L32489.9,1759.2L32489.9,1776.17L32504.7,1776.17L32504.7,1827.1L32489.9,1827.1L32489.9,1878.03L32504.7,1878.03L32504.7,1895L32519.6,1895L32519.6,1878.03L32534.4,1878.03L32534.4,1844.08L32519.6,1844.08L32519.6,1793.15L32534.4,1793.15L32534.4,1776.17L32564.1,1776.17L32564.1,1793.15L32578.9,1793.15L32578.9,1827.1L32593.7,1827.1L32593.7,1911.98L32578.9,1911.98L32578.9,1945.93L32564.1,1945.93L32564.1,1962.9L32460.2,1962.9L32460.2,1945.93L32445.4,1945.93L32445.4,1911.98L32430.6,1911.98L32430.6,1793.15L32445.4,1793.15Z"/>
            </g>
            <g transform="matrix(2.0666,0,0,2.0666,-33946.2,-1090.88)">
                <path d="M31941.2,1776.17L31941.2,1759.2L32000.5,1759.2L32000.5,1776.17L32030.2,1776.17L32030.2,1793.15L32045,1793.15L32045,1844.08L32030.2,1844.08L32030.2,1861.05L32045,1861.05L32045,1878.03L32059.8,1878.03L32059.8,1945.93L32030.2,1945.93L32030.2,1962.9L31911.5,1962.9L31911.5,1945.93L31896.7,1945.93L31896.7,1861.05L31911.5,1861.05L31911.5,1810.12L31926.4,1810.12L31926.4,1776.17L31941.2,1776.17ZM31985.7,1810.12L31970.9,1810.12L31970.9,1827.1L31956,1827.1L31956,1844.08L31985.7,1844.08L31985.7,1810.12ZM31985.7,1878.03L31956,1878.03L31956,1911.98L31985.7,1911.98L31985.7,1878.03ZM32089.5,1793.15L32089.5,1759.2L32134,1759.2L32134,1776.17L32148.8,1776.17L32148.8,1827.1L32134,1827.1L32134,1878.03L32148.8,1878.03L32148.8,1895L32163.6,1895L32163.6,1878.03L32178.5,1878.03L32178.5,1844.08L32163.6,1844.08L32163.6,1793.15L32178.5,1793.15L32178.5,1776.17L32208.1,1776.17L32208.1,1793.15L32223,1793.15L32223,1827.1L32237.8,1827.1L32237.8,1911.98L32223,1911.98L32223,1945.93L32208.1,1945.93L32208.1,1962.9L32104.3,1962.9L32104.3,1945.93L32089.5,1945.93L32089.5,1911.98L32074.7,1911.98L32074.7,1793.15L32089.5,1793.15ZM32297.1,1776.17L32297.1,1759.2L32356.4,1759.2L32356.4,1776.17L32386.1,1776.17L32386.1,1793.15L32400.9,1793.15L32400.9,1844.08L32386.1,1844.08L32386.1,1861.05L32400.9,1861.05L32400.9,1878.03L32415.8,1878.03L32415.8,1945.93L32386.1,1945.93L32386.1,1962.9L32267.5,1962.9L32267.5,1945.93L32252.6,1945.93L32252.6,1861.05L32267.5,1861.05L32267.5,1810.12L32282.3,1810.12L32282.3,1776.17L32297.1,1776.17ZM32341.6,1878.03L32311.9,1878.03L32311.9,1911.98L32341.6,1911.98L32341.6,1878.03ZM32341.6,1810.12L32326.8,1810.12L32326.8,1827.1L32311.9,1827.1L32311.9,1844.08L32341.6,1844.08L32341.6,1810.12ZM32445.4,1793.15L32445.4,1759.2L32489.9,1759.2L32489.9,1776.17L32504.7,1776.17L32504.7,1827.1L32489.9,1827.1L32489.9,1878.03L32504.7,1878.03L32504.7,1895L32519.6,1895L32519.6,1878.03L32534.4,1878.03L32534.4,1844.08L32519.6,1844.08L32519.6,1793.15L32534.4,1793.15L32534.4,1776.17L32564.1,1776.17L32564.1,1793.15L32578.9,1793.15L32578.9,1827.1L32593.7,1827.1L32593.7,1911.98L32578.9,1911.98L32578.9,1945.93L32564.1,1945.93L32564.1,1962.9L32460.2,1962.9L32460.2,1945.93L32445.4,1945.93L32445.4,1911.98L32430.6,1911.98L32430.6,1793.15L32445.4,1793.15Z"/>
            </g>
            <g transform="matrix(2.0666,0,0,2.0666,-33946.2,-1067)">
                <path d="M31941.2,1776.17L31941.2,1759.2L32000.5,1759.2L32000.5,1776.17L32030.2,1776.17L32030.2,1793.15L32045,1793.15L32045,1844.08L32030.2,1844.08L32030.2,1861.05L32045,1861.05L32045,1878.03L32059.8,1878.03L32059.8,1945.93L32030.2,1945.93L32030.2,1962.9L31911.5,1962.9L31911.5,1945.93L31896.7,1945.93L31896.7,1861.05L31911.5,1861.05L31911.5,1810.12L31926.4,1810.12L31926.4,1776.17L31941.2,1776.17ZM31985.7,1810.12L31970.9,1810.12L31970.9,1827.1L31956,1827.1L31956,1844.08L31985.7,1844.08L31985.7,1810.12ZM31985.7,1878.03L31956,1878.03L31956,1911.98L31985.7,1911.98L31985.7,1878.03ZM32089.5,1793.15L32089.5,1759.2L32134,1759.2L32134,1776.17L32148.8,1776.17L32148.8,1827.1L32134,1827.1L32134,1878.03L32148.8,1878.03L32148.8,1895L32163.6,1895L32163.6,1878.03L32178.5,1878.03L32178.5,1844.08L32163.6,1844.08L32163.6,1793.15L32178.5,1793.15L32178.5,1776.17L32208.1,1776.17L32208.1,1793.15L32223,1793.15L32223,1827.1L32237.8,1827.1L32237.8,1911.98L32223,1911.98L32223,1945.93L32208.1,1945.93L32208.1,1962.9L32104.3,1962.9L32104.3,1945.93L32089.5,1945.93L32089.5,1911.98L32074.7,1911.98L32074.7,1793.15L32089.5,1793.15ZM32297.1,1776.17L32297.1,1759.2L32356.4,1759.2L32356.4,1776.17L32386.1,1776.17L32386.1,1793.15L32400.9,1793.15L32400.9,1844.08L32386.1,1844.08L32386.1,1861.05L32400.9,1861.05L32400.9,1878.03L32415.8,1878.03L32415.8,1945.93L32386.1,1945.93L32386.1,1962.9L32267.5,1962.9L32267.5,1945.93L32252.6,1945.93L32252.6,1861.05L32267.5,1861.05L32267.5,1810.12L32282.3,1810.12L32282.3,1776.17L32297.1,1776.17ZM32341.6,1878.03L32311.9,1878.03L32311.9,1911.98L32341.6,1911.98L32341.6,1878.03ZM32341.6,1810.12L32326.8,1810.12L32326.8,1827.1L32311.9,1827.1L32311.9,1844.08L32341.6,1844.08L32341.6,1810.12ZM32445.4,1793.15L32445.4,1759.2L32489.9,1759.2L32489.9,1776.17L32504.7,1776.17L32504.7,1827.1L32489.9,1827.1L32489.9,1878.03L32504.7,1878.03L32504.7,1895L32519.6,1895L32519.6,1878.03L32534.4,1878.03L32534.4,1844.08L32519.6,1844.08L32519.6,1793.15L32534.4,1793.15L32534.4,1776.17L32564.1,1776.17L32564.1,1793.15L32578.9,1793.15L32578.9,1827.1L32593.7,1827.1L32593.7,1911.98L32578.9,1911.98L32578.9,1945.93L32564.1,1945.93L32564.1,1962.9L32460.2,1962.9L32460.2,1945.93L32445.4,1945.93L32445.4,1911.98L32430.6,1911.98L32430.6,1793.15L32445.4,1793.15Z"/>
            </g>
            <g transform="matrix(2.0666,0,0,2.0666,-33946.2,-1121.19)">
                <path d="M31941.2,1776.17L31941.2,1759.2L32000.5,1759.2L32000.5,1776.17L32030.2,1776.17L32030.2,1793.15L32045,1793.15L32045,1844.08L32030.2,1844.08L32030.2,1861.05L32045,1861.05L32045,1878.03L32059.8,1878.03L32059.8,1945.93L32030.2,1945.93L32030.2,1962.9L31911.5,1962.9L31911.5,1945.93L31896.7,1945.93L31896.7,1861.05L31911.5,1861.05L31911.5,1810.12L31926.4,1810.12L31926.4,1776.17L31941.2,1776.17ZM31985.7,1810.12L31970.9,1810.12L31970.9,1827.1L31956,1827.1L31956,1844.08L31985.7,1844.08L31985.7,1810.12ZM31985.7,1878.03L31956,1878.03L31956,1911.98L31985.7,1911.98L31985.7,1878.03ZM32089.5,1793.15L32089.5,1759.2L32134,1759.2L32134,1776.17L32148.8,1776.17L32148.8,1827.1L32134,1827.1L32134,1878.03L32148.8,1878.03L32148.8,1895L32163.6,1895L32163.6,1878.03L32178.5,1878.03L32178.5,1844.08L32163.6,1844.08L32163.6,1793.15L32178.5,1793.15L32178.5,1776.17L32208.1,1776.17L32208.1,1793.15L32223,1793.15L32223,1827.1L32237.8,1827.1L32237.8,1911.98L32223,1911.98L32223,1945.93L32208.1,1945.93L32208.1,1962.9L32104.3,1962.9L32104.3,1945.93L32089.5,1945.93L32089.5,1911.98L32074.7,1911.98L32074.7,1793.15L32089.5,1793.15ZM32297.1,1776.17L32297.1,1759.2L32356.4,1759.2L32356.4,1776.17L32386.1,1776.17L32386.1,1793.15L32400.9,1793.15L32400.9,1844.08L32386.1,1844.08L32386.1,1861.05L32400.9,1861.05L32400.9,1878.03L32415.8,1878.03L32415.8,1945.93L32386.1,1945.93L32386.1,1962.9L32267.5,1962.9L32267.5,1945.93L32252.6,1945.93L32252.6,1861.05L32267.5,1861.05L32267.5,1810.12L32282.3,1810.12L32282.3,1776.17L32297.1,1776.17ZM32341.6,1810.12L32326.8,1810.12L32326.8,1827.1L32311.9,1827.1L32311.9,1844.08L32341.6,1844.08L32341.6,1810.12ZM32341.6,1878.03L32311.9,1878.03L32311.9,1911.98L32341.6,1911.98L32341.6,1878.03ZM32445.4,1793.15L32445.4,1759.2L32489.9,1759.2L32489.9,1776.17L32504.7,1776.17L32504.7,1827.1L32489.9,1827.1L32489.9,1878.03L32504.7,1878.03L32504.7,1895L32519.6,1895L32519.6,1878.03L32534.4,1878.03L32534.4,1844.08L32519.6,1844.08L32519.6,1793.15L32534.4,1793.15L32534.4,1776.17L32564.1,1776.17L32564.1,1793.15L32578.9,1793.15L32578.9,1827.1L32593.7,1827.1L32593.7,1911.98L32578.9,1911.98L32578.9,1945.93L32564.1,1945.93L32564.1,1962.9L32460.2,1962.9L32460.2,1945.93L32445.4,1945.93L32445.4,1911.98L32430.6,1911.98L32430.6,1793.15L32445.4,1793.15Z" style="fill:white;"/>
            </g>
            <g transform="matrix(0.497454,0,0,0.497454,16316.1,2203.45)">
                <path d="M31910.3,1872.37L31910.3,1849.73L31949.9,1849.73L31949.9,1736.56L31930.1,1736.56L31930.1,1713.93L31989.4,1713.93L31989.4,1849.73L32028.9,1849.73L32028.9,1872.37L31910.3,1872.37ZM32108,1736.56L32108,1713.93L32147.6,1713.93L32147.6,1736.56L32108,1736.56ZM32068.5,1872.37L32068.5,1849.73L32108,1849.73L32108,1781.83L32088.3,1781.83L32088.3,1759.2L32147.6,1759.2L32147.6,1849.73L32187.1,1849.73L32187.1,1872.37L32068.5,1872.37ZM32226.7,1872.37L32226.7,1849.73L32266.2,1849.73L32266.2,1736.56L32246.4,1736.56L32246.4,1713.93L32305.8,1713.93L32305.8,1849.73L32345.3,1849.73L32345.3,1872.37L32226.7,1872.37ZM32543,1872.37L32543,1849.73L32523.3,1849.73L32523.3,1713.93L32562.8,1713.93L32562.8,1759.2L32641.9,1759.2L32641.9,1781.83L32661.7,1781.83L32661.7,1849.73L32641.9,1849.73L32641.9,1872.37L32543,1872.37ZM32562.8,1849.73L32622.1,1849.73L32622.1,1781.83L32562.8,1781.83L32562.8,1849.73ZM32701.2,1872.37L32701.2,1849.73L32681.5,1849.73L32681.5,1827.1L32701.2,1827.1L32701.2,1804.47L32780.3,1804.47L32780.3,1781.83L32701.2,1781.83L32701.2,1759.2L32800.1,1759.2L32800.1,1781.83L32819.9,1781.83L32819.9,1872.37L32701.2,1872.37ZM32721,1849.73L32780.3,1849.73L32780.3,1827.1L32721,1827.1L32721,1849.73ZM32859.4,1872.37L32859.4,1849.73L32839.6,1849.73L32839.6,1713.93L32879.2,1713.93L32879.2,1759.2L32958.3,1759.2L32958.3,1781.83L32978.1,1781.83L32978.1,1849.73L32958.3,1849.73L32958.3,1872.37L32859.4,1872.37ZM32879.2,1849.73L32938.5,1849.73L32938.5,1781.83L32879.2,1781.83L32879.2,1849.73ZM33017.6,1895L33017.6,1872.37L33096.7,1872.37L33096.7,1849.73L33017.6,1849.73L33017.6,1827.1L32997.8,1827.1L32997.8,1759.2L33037.4,1759.2L33037.4,1827.1L33096.7,1827.1L33096.7,1759.2L33136.2,1759.2L33136.2,1872.37L33116.5,1872.37L33116.5,1895L33017.6,1895ZM33334,1872.37L33334,1849.73L33314.2,1849.73L33314.2,1713.93L33353.7,1713.93L33353.7,1759.2L33432.8,1759.2L33432.8,1781.83L33452.6,1781.83L33452.6,1849.73L33432.8,1849.73L33432.8,1872.37L33334,1872.37ZM33353.7,1849.73L33413.1,1849.73L33413.1,1781.83L33353.7,1781.83L33353.7,1849.73ZM33492.2,1872.37L33492.2,1849.73L33472.4,1849.73L33472.4,1781.83L33492.2,1781.83L33492.2,1759.2L33591,1759.2L33591,1781.83L33610.8,1781.83L33610.8,1849.73L33591,1849.73L33591,1872.37L33492.2,1872.37ZM33511.9,1849.73L33571.3,1849.73L33571.3,1781.83L33511.9,1781.83L33511.9,1849.73ZM33630.6,1872.37L33630.6,1849.73L33729.4,1849.73L33729.4,1827.1L33650.3,1827.1L33650.3,1804.47L33630.6,1804.47L33630.6,1781.83L33650.3,1781.83L33650.3,1759.2L33749.2,1759.2L33749.2,1781.83L33670.1,1781.83L33670.1,1804.47L33749.2,1804.47L33749.2,1827.1L33769,1827.1L33769,1849.73L33749.2,1849.73L33749.2,1872.37L33630.6,1872.37ZM33788.8,1872.37L33788.8,1849.73L33887.6,1849.73L33887.6,1827.1L33808.5,1827.1L33808.5,1804.47L33788.8,1804.47L33788.8,1781.83L33808.5,1781.83L33808.5,1759.2L33907.4,1759.2L33907.4,1781.83L33828.3,1781.83L33828.3,1804.47L33907.4,1804.47L33907.4,1827.1L33927.2,1827.1L33927.2,1849.73L33907.4,1849.73L33907.4,1872.37L33788.8,1872.37Z"/>
            </g>
            <g transform="matrix(2.0666,0,0,2.0666,-33946.2,-1121.19)">
                <path d="M32053.8,1852.29L32053.8,1869.27L32065.9,1869.27L32065.9,1784.39L32080.7,1784.39L32080.7,1750.44L32142.7,1750.44L32142.7,1767.41L32157.6,1767.41L32157.6,1784.39L32169.7,1784.39L32169.7,1767.41L32216.9,1767.41L32216.9,1784.39L32231.7,1784.39L32231.7,1818.34L32246.6,1818.34L32246.6,1852.29L32258.7,1852.29L32258.7,1801.37L32273.5,1801.37L32273.5,1767.41L32288.4,1767.41L32288.4,1750.44L32365.2,1750.44L32365.2,1767.41L32394.9,1767.41L32394.9,1784.39L32409.7,1784.39L32409.7,1852.29L32409.7,1869.27L32421.8,1869.27L32421.8,1784.39L32436.7,1784.39L32436.7,1750.44L32498.7,1750.44L32498.7,1767.41L32513.5,1767.41L32513.5,1784.39L32525.6,1784.39L32525.6,1767.41L32572.8,1767.41L32572.8,1784.39L32587.6,1784.39L32587.6,1818.34L32602.5,1818.34L32602.5,1920.74L32587.6,1920.74L32587.6,1954.69L32572.8,1954.69L32572.8,1971.66L32451.5,1971.66L32451.5,1954.69L32436.7,1954.69L32436.7,1920.74L32424.5,1920.74L32424.5,1954.69L32394.9,1954.69L32394.9,1971.66L32258.7,1971.66L32258.7,1954.69L32243.9,1954.69L32243.9,1920.74L32231.7,1920.74L32231.7,1954.69L32216.9,1954.69L32216.9,1971.66L32095.6,1971.66L32095.6,1954.69L32080.7,1954.69L32080.7,1920.74L32068.6,1920.74L32068.6,1954.69L32038.9,1954.69L32038.9,1971.66L31902.8,1971.66L31902.8,1954.69L31888,1954.69L31888,1852.29L31902.8,1852.29L31902.8,1801.37L31917.6,1801.37L31917.6,1767.41L31932.4,1767.41L31932.4,1750.44L32009.3,1750.44L32009.3,1767.41L32038.9,1767.41L32038.9,1784.39L32053.8,1784.39L32053.8,1852.29ZM32089.5,1793.15L32074.7,1793.15L32074.7,1911.98L32089.5,1911.98L32089.5,1945.93L32104.3,1945.93L32104.3,1962.9L32208.1,1962.9L32208.1,1945.93L32223,1945.93L32223,1911.98L32237.8,1911.98L32237.8,1827.1L32223,1827.1L32223,1793.15L32208.1,1793.15L32208.1,1776.17L32178.5,1776.17L32178.5,1793.15L32163.6,1793.15L32163.6,1844.08L32178.5,1844.08L32178.5,1878.03L32163.6,1878.03L32163.6,1895L32148.8,1895L32148.8,1878.03L32134,1878.03L32134,1827.1L32148.8,1827.1L32148.8,1776.17L32134,1776.17L32134,1759.2L32089.5,1759.2L32089.5,1793.15ZM32445.4,1793.15L32430.6,1793.15L32430.6,1911.98L32445.4,1911.98L32445.4,1945.93L32460.2,1945.93L32460.2,1962.9L32564.1,1962.9L32564.1,1945.93L32578.9,1945.93L32578.9,1911.98L32593.7,1911.98L32593.7,1827.1L32578.9,1827.1L32578.9,1793.15L32564.1,1793.15L32564.1,1776.17L32534.4,1776.17L32534.4,1793.15L32519.6,1793.15L32519.6,1844.08L32534.4,1844.08L32534.4,1878.03L32519.6,1878.03L32519.6,1895L32504.7,1895L32504.7,1878.03L32489.9,1878.03L32489.9,1827.1L32504.7,1827.1L32504.7,1776.17L32489.9,1776.17L32489.9,1759.2L32445.4,1759.2L32445.4,1793.15ZM31941.2,1776.17L31926.4,1776.17L31926.4,1810.12L31911.5,1810.12L31911.5,1861.05L31896.7,1861.05L31896.7,1945.93L31911.5,1945.93L31911.5,1962.9L32030.2,1962.9L32030.2,1945.93L32059.8,1945.93L32059.8,1878.03L32045,1878.03L32045,1861.05L32030.2,1861.05L32030.2,1844.08L32045,1844.08L32045,1793.15L32030.2,1793.15L32030.2,1776.17L32000.5,1776.17L32000.5,1759.2L31941.2,1759.2L31941.2,1776.17ZM31985.7,1878.03L31985.7,1911.98L31956,1911.98L31956,1878.03L31985.7,1878.03ZM31976.9,1886.79L31964.8,1886.79L31964.8,1903.22L31976.9,1903.22L31976.9,1886.79ZM31985.7,1810.12L31985.7,1844.08L31956,1844.08L31956,1827.1L31970.9,1827.1L31970.9,1810.12L31985.7,1810.12ZM32510.8,1835.86L32498.7,1835.86L32498.7,1869.27L32510.8,1869.27L32525.6,1869.27L32525.6,1852.83L32510.8,1852.83L32510.8,1835.86ZM32297.1,1776.17L32282.3,1776.17L32282.3,1810.12L32267.5,1810.12L32267.5,1861.05L32252.6,1861.05L32252.6,1945.93L32267.5,1945.93L32267.5,1962.9L32386.1,1962.9L32386.1,1945.93L32415.8,1945.93L32415.8,1878.03L32400.9,1878.03L32400.9,1861.05L32386.1,1861.05L32386.1,1844.08L32400.9,1844.08L32400.9,1793.15L32386.1,1793.15L32386.1,1776.17L32356.4,1776.17L32356.4,1759.2L32297.1,1759.2L32297.1,1776.17ZM32341.6,1878.03L32341.6,1911.98L32311.9,1911.98L32311.9,1878.03L32341.6,1878.03ZM32332.8,1886.79L32320.7,1886.79L32320.7,1903.22L32332.8,1903.22L32332.8,1886.79ZM32341.6,1810.12L32341.6,1844.08L32311.9,1844.08L32311.9,1827.1L32326.8,1827.1L32326.8,1810.12L32341.6,1810.12ZM32154.9,1835.86L32142.7,1835.86L32142.7,1869.27L32154.9,1869.27L32169.7,1869.27L32169.7,1852.83L32154.9,1852.83L32154.9,1835.86Z"/>
            </g>
        </g>
    </g>
</svg>
