<?xml version="1.0" encoding="UTF-8" standalone="no"?>
<!DOCTYPE svg PUBLIC "-//W3C//DTD SVG 1.1//EN" "http://www.w3.org/Graphics/SVG/1.1/DTD/svg11.dtd">
<svg width="100%" height="100%" viewBox="0 0 1419 1559" version="1.1" xmlns="http://www.w3.org/2000/svg" xmlns:xlink="http://www.w3.org/1999/xlink" xml:space="preserve" xmlns:serif="http://www.serif.com/" style="fill-rule:evenodd;clip-rule:evenodd;stroke-linejoin:round;stroke-miterlimit:2;">
    <g transform="matrix(1,0,0,1,-24429.3,6012.91)">
        <g transform="matrix(1,0,0,1,498.946,-6012.91)">
            <path d="M24838.3,1283.12C24844.5,1269.73 24852.4,1241.72 24940.5,1219.27C24995.4,1205.3 25069.4,1227.3 25078.2,1237.58C25177.3,1353.32 25063.7,1590.48 24762.8,1500.03C24718.9,1550.15 24641.1,1563.72 24661.8,1527.66L24666.1,1528.32C24700,1530.08 24701.3,1508.34 24701.8,1503.22C24689.9,1515.43 24678.7,1518.95 24670.6,1519.21C24656.3,1519.67 24654.9,1511.48 24655.5,1502.01C24655.9,1502.14 24664.5,1506.7 24681.8,1501.06C24701.7,1494.62 24704.3,1472.46 24703.3,1470.61C24703,1470.08 24702.6,1470.15 24697.7,1475.71C24688.6,1485.93 24672.3,1489.92 24664,1488.83C24650.1,1486.98 24650.9,1478.95 24651.4,1470.6C24651.7,1463.85 24654.3,1465.43 24661,1464.42C24706.7,1457.56 24703.2,1424.35 24702.3,1422.43C24700.8,1419.28 24700.7,1422.83 24698.9,1426.32C24687.5,1448.17 24667.3,1450.89 24659.6,1448.94C24652.1,1447.03 24658.1,1410.09 24650.5,1384.57C24641.1,1353.27 24657.3,1356.57 24661.5,1346.82C24663.4,1342.34 24687.3,1325.82 24716.1,1327.04C24756.1,1328.75 24760.3,1335.11 24825.9,1304.04C24892.3,1272.6 24895.2,1279.87 24935.7,1259.52C24913.7,1254.82 24875.6,1268.21 24838.3,1283.12ZM24433.3,1274.95C24410.2,1266.7 24383.7,1261 24349.2,1262.14C24384.5,1264.13 24451.3,1289.66 24474.4,1302.15C24520.8,1327.33 24535.5,1322.3 24543.6,1323.91C24560.3,1327.21 24596.6,1313.57 24620.9,1356.95C24631.5,1375.74 24620.3,1375.8 24619.6,1376.26C24616.9,1381.58 24617,1381.59 24616.7,1382C24623,1383.32 24624.2,1385.95 24630.1,1392.66C24633.5,1396.65 24639.1,1402.75 24640.4,1412.63C24641.7,1422.57 24638.2,1439.12 24631,1444.17C24600.5,1465.33 24582.6,1420.82 24581.9,1420.6C24579.2,1419.8 24577.5,1435.41 24581.8,1446.2C24593.3,1474.97 24630.1,1460.16 24630.8,1459.97C24630.6,1475.6 24630,1487.48 24616.5,1489.09C24603.6,1490.64 24596.1,1486.78 24585.9,1472.6C24575.6,1458.37 24580,1479.87 24583,1485.6C24595.7,1509.84 24625,1503.52 24625,1503.52C24623.6,1513.58 24626.2,1516.32 24616.6,1519.65C24595.5,1526.99 24578.3,1515.77 24572.7,1512.51C24590.4,1542.52 24607.4,1536.01 24619.5,1530.33C24616.2,1536.1 24617,1536.84 24611.3,1540.37C24611.3,1540.39 24605.8,1544.3 24597.2,1545.03C24569.2,1547.43 24539.4,1523.06 24513.8,1499.91C24291.8,1569.02 24102.6,1406.79 24176.1,1268.21C24222.5,1180.67 24362.8,1216 24405.9,1244.74C24428.4,1259.77 24432.1,1269.6 24433.3,1274.95ZM24063.3,1003.94C24061.6,1011.77 24078,1032.01 24078.4,1032.64C24076.1,1041.62 24076.4,1041.57 24075.3,1050.83C24080.8,1041.07 24089.9,1019.05 24109.4,1027.41C24110.3,1037.8 24114.9,1049.08 24126.8,1059.09C24110.2,1058.51 24098.4,1073.43 24093.6,1082.91C24119.6,1069.06 24127.5,1066.81 24151.5,1067.25C24146.7,1065.16 24125.1,1059.54 24122.7,1020.17C24120.6,986.275 24139.3,997.243 24154.1,987.996C24151.9,987.706 24110.7,993.129 24088.5,958.999C24071.9,933.471 24086.4,906.102 24102.5,911.494C24118.3,916.766 24116.7,937.264 24161.1,927.971C24186.2,922.708 24210,987.13 24214.3,1016.49C24235.9,1011.53 24260,1020.06 24283.5,1032.66C24281.2,1017.29 24282.8,1012.14 24282.8,1012.1C24306.7,1022.95 24327.8,1029.58 24355,1060.85C24384.9,1095.17 24383.9,1099.47 24382.9,1103.43C24364.4,1181.54 24357,1196.72 24268.4,1203.06C24238.1,1205.24 24205,1215.2 24196.8,1213.83C24159.4,1207.58 24115.7,1199.03 24078.3,1160.82C24056.8,1138.88 24013,1166.39 23971.2,1118.56C23964.5,1110.86 23978.1,1090.19 23998.3,1085.24C24013.5,1081.48 24035.1,1088.33 24044.3,1107.08C24062.4,1110.46 24062.5,1111.06 24076.3,1123.24C24075.9,1121.77 24070.1,1098.33 24043.4,1097.93C24043,1096.38 24040.1,1085.75 24033,1080.69C24012.5,1065.98 23996.6,1075.62 23982.9,1075.57C23976.8,1075.55 23935,1041 23941.5,1015.22C23945.6,998.686 23968.8,992.286 23987.5,1004.23C24017.8,1023.64 24011.1,1034.2 24015.6,1042.07C24017.8,1045.79 24027.7,1047.29 24035.6,1054.74C24048,1066.41 24052.7,1069.7 24057.8,1073.84C24053.8,1066.09 24042.1,1040.38 24021.4,1036.16C24020,1025.02 24019.3,1021.88 24016.7,1016.93C24009,1002.57 24006.1,1004.53 24006,1003.14C24001.8,945.038 24057,934.652 24072.6,929.837C24074.1,953.78 24072.3,954.756 24085.6,974.784C24083.6,976.875 24065.2,995.565 24063.3,1003.94ZM24938.6,1204.2C24921.7,1180.39 24898.2,1133.11 24892.4,1101.44C24890.1,1089.21 24931.6,1038.39 25001.5,1007.76C25001.2,1009.67 24999.4,1020.05 24994.2,1030.88C25025.4,1005.44 25049.4,1005.18 25055.3,1004.6C25058,1017.06 25060.7,1024.95 25067.3,1033.36C25068.2,1009.22 25059.7,1004.75 25070.6,972.298C25076.7,954.141 25087.2,940.744 25100,931.359C25119.7,916.869 25142.4,933.433 25177.6,908.396C25189.6,899.809 25200.1,923.79 25187.2,950.068C25165.5,994.022 25123.4,983.064 25120.1,982.699C25132.3,998.119 25143.6,991.445 25145.5,1000.77C25155.1,1048.52 25106.9,1057.95 25105.9,1058.32C25135.2,1060.72 25144.8,1058.57 25178.3,1081.95C25171.1,1065.29 25170.5,1060.36 25148.9,1050.26C25157.6,1040.99 25162.1,1038.79 25159.3,1016.82C25168.8,1024.13 25168.9,1023.78 25178.8,1030.46C25204.6,1047.86 25200.9,1054.79 25221.1,1082.32C25209.5,1037.81 25193.4,1032.59 25194,1023.95C25195,1007.34 25210.2,1007.31 25212.2,1007.3C25205.5,999.486 25196.5,990.028 25192.6,979.936C25185.9,962.383 25192.4,962.308 25200.2,937.963C25268,932.742 25269.7,996.211 25269.4,997.661C25269.2,998.935 25264.7,1000.07 25255.6,1014.48C25244.5,1032.02 25246.1,1042.31 25246.1,1043.48C25244.5,1044.67 25242,1045.48 25237.4,1055.13C25233.2,1063.96 25235.3,1073.29 25237.2,1077.5C25239.5,1069.59 25239.8,1065.75 25242.4,1060.88C25248.3,1049.82 25251.9,1047.61 25253.1,1046.88C25253.2,1044.82 25254,1032.54 25261,1022.3C25268.6,1011.17 25278.3,1003.8 25280,1002.47C25301.5,986.154 25317.7,990.662 25327.8,995.185C25350.7,1005.45 25334.9,1043.81 25306.9,1074.82C25306.9,1074.84 25289.5,1073.37 25266.8,1084.19C25234.2,1099.72 25228.2,1119.05 25226.9,1123.32C25229.3,1120.58 25240.2,1104.03 25267.1,1092.38C25297.7,1079.15 25313.7,1095.83 25312.6,1104.4C25309.9,1124.45 25273.3,1166.16 25205.8,1165.59C25168,1165.26 25153.5,1184.76 25131.7,1196.79C25107.5,1210.1 25069.2,1216.37 25053.3,1212C25007.8,1199.47 24971,1197.07 24938.6,1204.2ZM24650.2,966.668C24560.6,965.819 24482.8,944.34 24447.2,933.757C24398.6,919.335 24352.4,900.175 24348.3,898.081C24226.2,836.449 24166.5,754.923 24140.5,714.869C24093.7,642.856 24074.6,569.247 24067.2,537.642C24063,519.83 24062.2,511.35 24068.4,471.037C24055.6,498.135 24056.6,498.517 24054,510.023C24041.6,501.354 24017.2,485.26 24000.3,441.071C23985.7,402.93 23990.6,363.816 23991.5,357.115C23995.7,323.327 24026.7,204.635 24127.9,240.946C24116,263.394 24110.7,285.737 24109,292.19C24110,290.613 24139.2,237.366 24141,235.028C24328.6,0.72 24689,-70.495 24990.3,118.145C25124.4,202.082 25135.9,250.463 25150.9,280.345C25142.3,247.193 25142.8,247.237 25130.3,215.501C25272,188.167 25287.2,375.114 25287.2,393.003C25287.2,464.182 25241.4,490.881 25233.4,495.551C25232.5,454.548 25177,426.297 25172.4,423.294C25199.2,446.649 25253.5,473.39 25193,630.905C25146.8,751.166 25063.5,845.066 24959.6,897.711C24870.1,936.983 24761.4,967.72 24650.2,966.668ZM25203.6,330.315C25201.7,328.184 25180.6,315.036 25182.8,319.246C25184.3,322.107 25191.8,330.494 25192.1,330.923C25203.9,344.543 25204.3,344.191 25204.5,344.879C25205,346.4 25204.8,346.453 25208.7,364.54C25210.9,374.409 25210.3,374.484 25211.8,380.424C25217,368.73 25216,360.29 25214.9,352.09C25226.4,359.438 25234.1,367.997 25235.9,369.759C25234.4,367.145 25224,348.353 25213.7,339.659C25213.7,338.758 25212.8,338.964 25211.4,328.624C25208.9,309.623 25208.6,308.815 25207.9,307.221C25206.3,310.604 25204,326.368 25203.6,330.315ZM24043.5,336.955C24041.9,333.301 24035,318.925 24032.5,316.17C24032.4,317.394 24032.3,318.19 24033.4,325.298C24033,324.575 24032.7,323.896 24032.3,323.266L24034,329.213C24034.4,331.533 24034.9,334.313 24035.5,337.658C24037.2,347.936 24036.3,348.018 24036.5,348.886C24032.1,355.834 24028.7,366.42 24026.6,374.251L24026.4,374.628L24026.6,374.267C24025.3,379.207 24024.5,383.047 24024.2,384.178C24025.4,381.971 24030.3,371.517 24039.1,361.098C24040.4,369.276 24042,377.627 24050.4,387.25C24050.1,381.133 24049.5,381.242 24048.6,371.177C24047.1,352.73 24046.8,352.758 24046.9,351.151C24046.9,350.424 24047.4,350.644 24054.6,334.16C24054.8,333.642 24059.4,323.433 24060,320.249C24060.9,315.565 24044.6,334.361 24043.5,336.955ZM24763.2,437.351C24744.8,424.893 24745.6,402.304 24741.4,404.114C24736.7,406.188 24747.9,456.036 24766.3,455.383C24781.1,474.839 24797,509.866 24832.7,509.866C24849.3,509.866 24862.9,500.939 24871.1,493.1C24897.1,468.225 24903.7,429.381 24903.7,429.377C24918.7,411.267 24914.1,404.397 24923.4,388.535C24928.4,380.05 24934.3,398.355 24939,389.775C24951.3,367.399 24950.4,328.844 24950.2,323.466C24949,329.815 24946.8,351.206 24932.8,369.919C24927.3,360.766 24926.2,361.159 24925.2,361.966C24920.8,365.527 24909.2,389.748 24908,392.261C24906,286.378 24849.8,269.697 24832.7,269.697C24791.1,269.697 24757.3,323.505 24757.3,389.782C24757.3,407.629 24759.5,419.543 24763.2,437.351ZM24744.9,615.007C24684.5,607.392 24631.9,615.164 24624.3,615.787C24604.6,617.388 24590.9,618.972 24546.3,636.344C24617.4,622.435 24617.6,624.479 24659.8,623.363C24701.8,622.253 24701.8,619.964 24743.5,625.206C24743.4,626.134 24743.4,627.062 24743.4,627.989C24743.2,659.318 24775.6,672.307 24779.9,674.06C24772.8,666.255 24758.8,652.939 24756.2,630.356C24753,602.721 24770.5,580.906 24774,575.69C24749.4,593.133 24745.6,612.094 24744.9,615.007ZM24762.2,197.322C24759.8,200.943 24739.3,232.146 24805.3,230.173C24855.4,228.678 24855.2,229.326 24905,234.42C24907.3,234.662 24934.9,242.433 24928.7,220.298C24912.9,164.177 24796.2,145.76 24762.2,197.322ZM24422.5,509.866C24439.8,509.866 24457.1,496.156 24459.7,494.159C24460.6,494.903 24462.7,496.534 24474.1,489.416C24490.4,479.168 24509.4,435.178 24511.7,430.017C24498.1,445.48 24495.9,455.655 24476.7,473.152C24480.1,467.147 24497.9,435.285 24497.9,389.782C24497.9,323.505 24464.1,269.697 24422.5,269.697C24417.9,269.697 24394.1,269.697 24373,299.273C24347.4,335.173 24349.6,383.815 24339.5,357.274C24329.6,331.194 24331.4,324.16 24316.3,324.543C24301.8,324.909 24301.4,320.46 24294.1,284.936C24293.3,289.26 24286.9,327.05 24295.3,339.763C24299.2,345.713 24311.6,333.808 24317.9,338.782C24323.7,343.302 24330,394.377 24342.4,385.114C24349.8,379.577 24345,389.849 24349.7,420.581C24356.1,462.814 24383.1,509.866 24422.5,509.866ZM24421,557.549C24418.7,543.372 24383.2,538.657 24350.9,548.398C24317.8,558.372 24288,583.145 24298.1,597.8C24318.2,626.673 24427.3,596.586 24421,557.549ZM24874.6,551.886C24867.5,591.616 24988.5,622.236 25010.7,592.852C25022,577.937 24988.9,552.724 24952.3,542.574C24916.4,532.66 24877.2,537.458 24874.6,551.886ZM24331.2,211.192C24332.7,236.836 24396.6,229.731 24441.4,230.065C24458.3,230.191 24514.7,242.809 24513.9,203.925C24512.7,145.09 24329.6,182.344 24331.2,211.192Z" style="fill:rgb(241,210,181);"/>
            <clipPath id="_clip1">
                <path d="M24838.3,1283.12C24844.5,1269.73 24852.4,1241.72 24940.5,1219.27C24995.4,1205.3 25069.4,1227.3 25078.2,1237.58C25177.3,1353.32 25063.7,1590.48 24762.8,1500.03C24718.9,1550.15 24641.1,1563.72 24661.8,1527.66L24666.1,1528.32C24700,1530.08 24701.3,1508.34 24701.8,1503.22C24689.9,1515.43 24678.7,1518.95 24670.6,1519.21C24656.3,1519.67 24654.9,1511.48 24655.5,1502.01C24655.9,1502.14 24664.5,1506.7 24681.8,1501.06C24701.7,1494.62 24704.3,1472.46 24703.3,1470.61C24703,1470.08 24702.6,1470.15 24697.7,1475.71C24688.6,1485.93 24672.3,1489.92 24664,1488.83C24650.1,1486.98 24650.9,1478.95 24651.4,1470.6C24651.7,1463.85 24654.3,1465.43 24661,1464.42C24706.7,1457.56 24703.2,1424.35 24702.3,1422.43C24700.8,1419.28 24700.7,1422.83 24698.9,1426.32C24687.5,1448.17 24667.3,1450.89 24659.6,1448.94C24652.1,1447.03 24658.1,1410.09 24650.5,1384.57C24641.1,1353.27 24657.3,1356.57 24661.5,1346.82C24663.4,1342.34 24687.3,1325.82 24716.1,1327.04C24756.1,1328.75 24760.3,1335.11 24825.9,1304.04C24892.3,1272.6 24895.2,1279.87 24935.7,1259.52C24913.7,1254.82 24875.6,1268.21 24838.3,1283.12ZM24433.3,1274.95C24410.2,1266.7 24383.7,1261 24349.2,1262.14C24384.5,1264.13 24451.3,1289.66 24474.4,1302.15C24520.8,1327.33 24535.5,1322.3 24543.6,1323.91C24560.3,1327.21 24596.6,1313.57 24620.9,1356.95C24631.5,1375.74 24620.3,1375.8 24619.6,1376.26C24616.9,1381.58 24617,1381.59 24616.7,1382C24623,1383.32 24624.2,1385.95 24630.1,1392.66C24633.5,1396.65 24639.1,1402.75 24640.4,1412.63C24641.7,1422.57 24638.2,1439.12 24631,1444.17C24600.5,1465.33 24582.6,1420.82 24581.9,1420.6C24579.2,1419.8 24577.5,1435.41 24581.8,1446.2C24593.3,1474.97 24630.1,1460.16 24630.8,1459.97C24630.6,1475.6 24630,1487.48 24616.5,1489.09C24603.6,1490.64 24596.1,1486.78 24585.9,1472.6C24575.6,1458.37 24580,1479.87 24583,1485.6C24595.7,1509.84 24625,1503.52 24625,1503.52C24623.6,1513.58 24626.2,1516.32 24616.6,1519.65C24595.5,1526.99 24578.3,1515.77 24572.7,1512.51C24590.4,1542.52 24607.4,1536.01 24619.5,1530.33C24616.2,1536.1 24617,1536.84 24611.3,1540.37C24611.3,1540.39 24605.8,1544.3 24597.2,1545.03C24569.2,1547.43 24539.4,1523.06 24513.8,1499.91C24291.8,1569.02 24102.6,1406.79 24176.1,1268.21C24222.5,1180.67 24362.8,1216 24405.9,1244.74C24428.4,1259.77 24432.1,1269.6 24433.3,1274.95ZM24063.3,1003.94C24061.6,1011.77 24078,1032.01 24078.4,1032.64C24076.1,1041.62 24076.4,1041.57 24075.3,1050.83C24080.8,1041.07 24089.9,1019.05 24109.4,1027.41C24110.3,1037.8 24114.9,1049.08 24126.8,1059.09C24110.2,1058.51 24098.4,1073.43 24093.6,1082.91C24119.6,1069.06 24127.5,1066.81 24151.5,1067.25C24146.7,1065.16 24125.1,1059.54 24122.7,1020.17C24120.6,986.275 24139.3,997.243 24154.1,987.996C24151.9,987.706 24110.7,993.129 24088.5,958.999C24071.9,933.471 24086.4,906.102 24102.5,911.494C24118.3,916.766 24116.7,937.264 24161.1,927.971C24186.2,922.708 24210,987.13 24214.3,1016.49C24235.9,1011.53 24260,1020.06 24283.5,1032.66C24281.2,1017.29 24282.8,1012.14 24282.8,1012.1C24306.7,1022.95 24327.8,1029.58 24355,1060.85C24384.9,1095.17 24383.9,1099.47 24382.9,1103.43C24364.4,1181.54 24357,1196.72 24268.4,1203.06C24238.1,1205.24 24205,1215.2 24196.8,1213.83C24159.4,1207.58 24115.7,1199.03 24078.3,1160.82C24056.8,1138.88 24013,1166.39 23971.2,1118.56C23964.5,1110.86 23978.1,1090.19 23998.3,1085.24C24013.5,1081.48 24035.1,1088.33 24044.3,1107.08C24062.4,1110.46 24062.5,1111.06 24076.3,1123.24C24075.9,1121.77 24070.1,1098.33 24043.4,1097.93C24043,1096.38 24040.1,1085.75 24033,1080.69C24012.5,1065.98 23996.6,1075.62 23982.9,1075.57C23976.8,1075.55 23935,1041 23941.5,1015.22C23945.6,998.686 23968.8,992.286 23987.5,1004.23C24017.8,1023.64 24011.1,1034.2 24015.6,1042.07C24017.8,1045.79 24027.7,1047.29 24035.6,1054.74C24048,1066.41 24052.7,1069.7 24057.8,1073.84C24053.8,1066.09 24042.1,1040.38 24021.4,1036.16C24020,1025.02 24019.3,1021.88 24016.7,1016.93C24009,1002.57 24006.1,1004.53 24006,1003.14C24001.8,945.038 24057,934.652 24072.6,929.837C24074.1,953.78 24072.3,954.756 24085.6,974.784C24083.6,976.875 24065.2,995.565 24063.3,1003.94ZM24938.6,1204.2C24921.7,1180.39 24898.2,1133.11 24892.4,1101.44C24890.1,1089.21 24931.6,1038.39 25001.5,1007.76C25001.2,1009.67 24999.4,1020.05 24994.2,1030.88C25025.4,1005.44 25049.4,1005.18 25055.3,1004.6C25058,1017.06 25060.7,1024.95 25067.3,1033.36C25068.2,1009.22 25059.7,1004.75 25070.6,972.298C25076.7,954.141 25087.2,940.744 25100,931.359C25119.7,916.869 25142.4,933.433 25177.6,908.396C25189.6,899.809 25200.1,923.79 25187.2,950.068C25165.5,994.022 25123.4,983.064 25120.1,982.699C25132.3,998.119 25143.6,991.445 25145.5,1000.77C25155.1,1048.52 25106.9,1057.95 25105.9,1058.32C25135.2,1060.72 25144.8,1058.57 25178.3,1081.95C25171.1,1065.29 25170.5,1060.36 25148.9,1050.26C25157.6,1040.99 25162.1,1038.79 25159.3,1016.82C25168.8,1024.13 25168.9,1023.78 25178.8,1030.46C25204.6,1047.86 25200.9,1054.79 25221.1,1082.32C25209.5,1037.81 25193.4,1032.59 25194,1023.95C25195,1007.34 25210.2,1007.31 25212.2,1007.3C25205.5,999.486 25196.5,990.028 25192.6,979.936C25185.9,962.383 25192.4,962.308 25200.2,937.963C25268,932.742 25269.7,996.211 25269.4,997.661C25269.2,998.935 25264.7,1000.07 25255.6,1014.48C25244.5,1032.02 25246.1,1042.31 25246.1,1043.48C25244.5,1044.67 25242,1045.48 25237.4,1055.13C25233.2,1063.96 25235.3,1073.29 25237.2,1077.5C25239.5,1069.59 25239.8,1065.75 25242.4,1060.88C25248.3,1049.82 25251.9,1047.61 25253.1,1046.88C25253.2,1044.82 25254,1032.54 25261,1022.3C25268.6,1011.17 25278.3,1003.8 25280,1002.47C25301.5,986.154 25317.7,990.662 25327.8,995.185C25350.7,1005.45 25334.9,1043.81 25306.9,1074.82C25306.9,1074.84 25289.5,1073.37 25266.8,1084.19C25234.2,1099.72 25228.2,1119.05 25226.9,1123.32C25229.3,1120.58 25240.2,1104.03 25267.1,1092.38C25297.7,1079.15 25313.7,1095.83 25312.6,1104.4C25309.9,1124.45 25273.3,1166.16 25205.8,1165.59C25168,1165.26 25153.5,1184.76 25131.7,1196.79C25107.5,1210.1 25069.2,1216.37 25053.3,1212C25007.8,1199.47 24971,1197.07 24938.6,1204.2ZM24650.2,966.668C24560.6,965.819 24482.8,944.34 24447.2,933.757C24398.6,919.335 24352.4,900.175 24348.3,898.081C24226.2,836.449 24166.5,754.923 24140.5,714.869C24093.7,642.856 24074.6,569.247 24067.2,537.642C24063,519.83 24062.2,511.35 24068.4,471.037C24055.6,498.135 24056.6,498.517 24054,510.023C24041.6,501.354 24017.2,485.26 24000.3,441.071C23985.7,402.93 23990.6,363.816 23991.5,357.115C23995.7,323.327 24026.7,204.635 24127.9,240.946C24116,263.394 24110.7,285.737 24109,292.19C24110,290.613 24139.2,237.366 24141,235.028C24328.6,0.72 24689,-70.495 24990.3,118.145C25124.4,202.082 25135.9,250.463 25150.9,280.345C25142.3,247.193 25142.8,247.237 25130.3,215.501C25272,188.167 25287.2,375.114 25287.2,393.003C25287.2,464.182 25241.4,490.881 25233.4,495.551C25232.5,454.548 25177,426.297 25172.4,423.294C25199.2,446.649 25253.5,473.39 25193,630.905C25146.8,751.166 25063.5,845.066 24959.6,897.711C24870.1,936.983 24761.4,967.72 24650.2,966.668ZM25203.6,330.315C25201.7,328.184 25180.6,315.036 25182.8,319.246C25184.3,322.107 25191.8,330.494 25192.1,330.923C25203.9,344.543 25204.3,344.191 25204.5,344.879C25205,346.4 25204.8,346.453 25208.7,364.54C25210.9,374.409 25210.3,374.484 25211.8,380.424C25217,368.73 25216,360.29 25214.9,352.09C25226.4,359.438 25234.1,367.997 25235.9,369.759C25234.4,367.145 25224,348.353 25213.7,339.659C25213.7,338.758 25212.8,338.964 25211.4,328.624C25208.9,309.623 25208.6,308.815 25207.9,307.221C25206.3,310.604 25204,326.368 25203.6,330.315ZM24043.5,336.955C24041.9,333.301 24035,318.925 24032.5,316.17C24032.4,317.394 24032.3,318.19 24033.4,325.298C24033,324.575 24032.7,323.896 24032.3,323.266L24034,329.213C24034.4,331.533 24034.9,334.313 24035.5,337.658C24037.2,347.936 24036.3,348.018 24036.5,348.886C24032.1,355.834 24028.7,366.42 24026.6,374.251L24026.4,374.628L24026.6,374.267C24025.3,379.207 24024.5,383.047 24024.2,384.178C24025.4,381.971 24030.3,371.517 24039.1,361.098C24040.4,369.276 24042,377.627 24050.4,387.25C24050.1,381.133 24049.5,381.242 24048.6,371.177C24047.1,352.73 24046.8,352.758 24046.9,351.151C24046.9,350.424 24047.4,350.644 24054.6,334.16C24054.8,333.642 24059.4,323.433 24060,320.249C24060.9,315.565 24044.6,334.361 24043.5,336.955ZM24763.2,437.351C24744.8,424.893 24745.6,402.304 24741.4,404.114C24736.7,406.188 24747.9,456.036 24766.3,455.383C24781.1,474.839 24797,509.866 24832.7,509.866C24849.3,509.866 24862.9,500.939 24871.1,493.1C24897.1,468.225 24903.7,429.381 24903.7,429.377C24918.7,411.267 24914.1,404.397 24923.4,388.535C24928.4,380.05 24934.3,398.355 24939,389.775C24951.3,367.399 24950.4,328.844 24950.2,323.466C24949,329.815 24946.8,351.206 24932.8,369.919C24927.3,360.766 24926.2,361.159 24925.2,361.966C24920.8,365.527 24909.2,389.748 24908,392.261C24906,286.378 24849.8,269.697 24832.7,269.697C24791.1,269.697 24757.3,323.505 24757.3,389.782C24757.3,407.629 24759.5,419.543 24763.2,437.351ZM24744.9,615.007C24684.5,607.392 24631.9,615.164 24624.3,615.787C24604.6,617.388 24590.9,618.972 24546.3,636.344C24617.4,622.435 24617.6,624.479 24659.8,623.363C24701.8,622.253 24701.8,619.964 24743.5,625.206C24743.4,626.134 24743.4,627.062 24743.4,627.989C24743.2,659.318 24775.6,672.307 24779.9,674.06C24772.8,666.255 24758.8,652.939 24756.2,630.356C24753,602.721 24770.5,580.906 24774,575.69C24749.4,593.133 24745.6,612.094 24744.9,615.007ZM24762.2,197.322C24759.8,200.943 24739.3,232.146 24805.3,230.173C24855.4,228.678 24855.2,229.326 24905,234.42C24907.3,234.662 24934.9,242.433 24928.7,220.298C24912.9,164.177 24796.2,145.76 24762.2,197.322ZM24422.5,509.866C24439.8,509.866 24457.1,496.156 24459.7,494.159C24460.6,494.903 24462.7,496.534 24474.1,489.416C24490.4,479.168 24509.4,435.178 24511.7,430.017C24498.1,445.48 24495.9,455.655 24476.7,473.152C24480.1,467.147 24497.9,435.285 24497.9,389.782C24497.9,323.505 24464.1,269.697 24422.5,269.697C24417.9,269.697 24394.1,269.697 24373,299.273C24347.4,335.173 24349.6,383.815 24339.5,357.274C24329.6,331.194 24331.4,324.16 24316.3,324.543C24301.8,324.909 24301.4,320.46 24294.1,284.936C24293.3,289.26 24286.9,327.05 24295.3,339.763C24299.2,345.713 24311.6,333.808 24317.9,338.782C24323.7,343.302 24330,394.377 24342.4,385.114C24349.8,379.577 24345,389.849 24349.7,420.581C24356.1,462.814 24383.1,509.866 24422.5,509.866ZM24421,557.549C24418.7,543.372 24383.2,538.657 24350.9,548.398C24317.8,558.372 24288,583.145 24298.1,597.8C24318.2,626.673 24427.3,596.586 24421,557.549ZM24874.6,551.886C24867.5,591.616 24988.5,622.236 25010.7,592.852C25022,577.937 24988.9,552.724 24952.3,542.574C24916.4,532.66 24877.2,537.458 24874.6,551.886ZM24331.2,211.192C24332.7,236.836 24396.6,229.731 24441.4,230.065C24458.3,230.191 24514.7,242.809 24513.9,203.925C24512.7,145.09 24329.6,182.344 24331.2,211.192Z"/>
            </clipPath>
            <g clip-path="url(#_clip1)">
                <path d="M25200.4,461.537C25232.9,455.688 25248.3,465.428 25305.4,368.02C25318.7,534.414 25243.8,727.505 25237.5,737.941C25059.6,1030.26 24405.8,1246.82 24043.6,613.658C24033,595.19 23991.8,585.199 23954.4,511.174C23914.9,433.047 23956.4,373.881 23963.4,355.973L23965,376.231L23965,377.452C23963.7,382.626 23962.1,388.518 24004.3,431.458C24047.7,475.596 24065.4,470.022 24074.1,471.493C24086.1,695.564 24399.8,873.621 24473.8,884.651C24795.9,932.674 25017.9,837.494 25076.5,781.572C25181.9,680.948 25186.9,563.89 25200.4,461.537Z" style="fill:rgb(238,189,166);"/>
                <path d="M23956,1107.78C24013,1137.17 24013.9,1140.03 24077.9,1133.5C24088.4,1132.43 24101.6,1188.26 24203.6,1193.94C24321.6,1200.52 24388,1150.81 24390.2,1149.59C24368.4,1230.43 24173.9,1311.67 24074.7,1245.12C24068.1,1240.69 23891.4,1100.87 23874.8,1073.02C23871.2,1066.95 23880.5,1066.41 23956,1107.78Z" style="fill:rgb(238,189,166);"/>
                <path d="M23924,1009.17C23923.3,1020.59 23948.2,1052.08 23980.6,1060.7C23999.1,1065.6 24013.4,1067.41 24017.5,1069.05C24019.3,1069.77 24019,1070.13 24036.5,1092.44C23980.1,1083.6 23957.6,1089.92 23938.8,1072.67C23931.2,1065.67 23910.3,1044.54 23924,1009.17Z" style="fill:rgb(238,189,166);"/>
                <path d="M24150.3,1408.04C24149.3,1401.36 24143.6,1358.79 24144.2,1324.03C24144.6,1305.45 24147.2,1296.51 24147.5,1294.74C24145,1303.77 24161.1,1411.11 24241.6,1448.06C24282.6,1466.86 24405.6,1481.48 24509.7,1461.62C24528.6,1503.74 24614.7,1532.83 24616.8,1532.65C24648,1529.99 24672.6,1498.49 24676,1494.02C24739.1,1509.21 24740.5,1472.7 24789.4,1488.77C25044.6,1572.54 25122.2,1313.79 25134.7,1287.67C25151.1,1375.23 25062.4,1616.36 24882.4,1559.8C24809.7,1536.98 24805.3,1527.31 24738.3,1563.8C24657.4,1607.86 24647.4,1567.6 24613.1,1585.14C24517.4,1633.98 24184.2,1658.61 24150.3,1408.04Z" style="fill:rgb(238,189,166);"/>
                <path d="M24898.6,1060.77C24905.1,1076.75 24929.7,1123.87 24938.8,1130.32C25043.4,1204.86 25133.2,1149.34 25148.9,1149.57C25209,1150.48 25223.6,1156.12 25253.8,1148.25C25292.8,1138.1 25302.9,1121.13 25352.3,1092.82C25338.5,1129.64 25274.5,1188.39 25197.9,1205.02C25047.5,1237.6 25044.3,1220.63 25038.6,1219.2C24995.2,1208.41 24993,1213.35 24911.6,1223.13C24911.7,1192.78 24908.1,1193.31 24892.1,1167.73C24880.1,1148.67 24884.2,1081.48 24898.6,1060.77Z" style="fill:rgb(238,189,166);"/>
            </g>
            <g transform="matrix(1,0,0,1,2070.18,-198.591)">
                <path d="M22894,1105.53C22891.5,1106.82 22888.9,1108.08 22886.3,1109.32C22896.8,1118.93 22908.1,1128.82 22917.6,1139.66C22927.6,1151.04 22940.7,1172.75 22944.1,1180.03C22951,1194.86 22947.2,1196.82 22942.6,1199.98L22942.1,1205.05C22956.1,1197.66 22970.5,1193.55 22985.1,1192.88C22989.2,1159.47 23003.1,1136.78 23023.7,1121.65C23033.3,1114.58 23043.4,1113.15 23054.9,1112.53C23067.6,1111.85 23082.5,1112.03 23101.4,1098.59C23103.9,1096.79 23106.3,1095.74 23108.5,1095.17L23112.7,1094.63L23117,1095.2C23122.5,1096.72 23127.5,1101.75 23130.4,1109.77C23132.1,1114.38 23133.2,1120.12 23133.8,1125.78C23148.1,1124.44 23160.8,1126.74 23171.9,1132.6C23188.9,1141.62 23202.3,1159.59 23210.6,1188.09C23225.8,1177.85 23242.7,1175.79 23261.8,1184.38C23275.3,1190.45 23280.7,1202.74 23278.4,1218.74C23276.1,1234.84 23265.1,1255.61 23249.4,1274.5C23257.2,1290.37 23254.6,1308.99 23243.1,1326.16C23225.7,1352.09 23186.5,1374.91 23135.5,1374.48C23107.5,1374.24 23096.3,1384.9 23080.7,1395.58C23065.2,1406.16 23046.2,1417.21 23009.1,1421.36C23080.4,1502.92 23063.4,1619.11 22974.6,1683C22914.1,1726.59 22819.3,1745.86 22695.8,1710.31C22673.3,1733.82 22644,1748.95 22621.7,1754.43C22610,1757.31 22600,1757.49 22593.2,1755.57C22589.6,1754.57 22586.7,1753 22584.4,1751.06L22580.8,1746.99L22578.5,1741.9C22577.3,1737.29 22577.6,1731.14 22581.3,1723.69C22581,1723.5 22580.6,1723.3 22580.3,1723.1C22579.2,1724.11 22577.9,1725.03 22576.6,1725.87C22572.3,1728.48 22566.8,1730.3 22559.6,1730.59C22556,1743.62 22543.8,1752.53 22527.9,1753.89C22514.9,1755 22501.5,1751.37 22488.3,1744.62C22472,1736.33 22455.9,1723.26 22441.1,1710.04C22191.8,1783.59 21985.1,1575.79 22124.7,1422.54C22076.8,1414.73 22036.5,1403.09 22000.8,1366.62C21993.6,1359.29 21984,1359.67 21973.1,1359.16C21950.4,1358.08 21923,1356.83 21893.4,1324.05C21882.6,1312.08 21893,1287.01 21896.7,1282.9C21898.4,1280.99 21899.2,1281.21 21898.6,1278.68C21898.2,1277.4 21897.9,1277.63 21897.9,1277.54C21877.7,1261.44 21864.5,1243.31 21861.2,1228.01C21858,1213.42 21862.3,1200.6 21875.9,1191.75C21883.2,1186.97 21892.9,1186.18 21903.6,1188.74C21910.5,1190.38 21918,1193.37 21925.3,1196.79C21925.2,1183.16 21927.8,1171.6 21932.9,1161.74C21943.2,1141.76 21964,1128.23 21995.6,1119.64C21999.4,1113.43 22006.2,1107.05 22013.8,1103.23C22021.4,1099.36 22029.5,1098.26 22035.6,1100.32C22041.9,1102.41 22046.2,1106.09 22050.6,1110.2C22053.5,1112.88 22056.3,1115.88 22061.5,1117.44C22067.4,1119.23 22075.7,1119.22 22088.8,1116.48C22099.6,1114.22 22110.8,1119.57 22120.6,1131.2C22135.2,1148.65 22147.3,1180.9 22152.4,1203.53C22168.2,1202.56 22184.9,1206.9 22201.7,1214.17C22201.7,1209.05 22202,1209.27 22202.1,1207.41C22195.6,1204.68 22189.5,1202.52 22202.4,1176.15C22222.6,1135.01 22243.8,1104.96 22250.3,1095.99C22250.8,1095.32 22251.2,1094.76 22251.6,1094.33C22234.2,1084.59 22217.6,1074.18 22201.7,1063.09C22090.1,985.216 22014.3,873.626 21983,720.299C21897.7,668.513 21894.3,552.54 21934.5,481.828C21961.7,434.111 22007.7,406.96 22060.8,429.771C22257.9,174.512 22706.7,82.29 23052.4,405.796C23127.6,378.895 23188.9,439.364 23214.4,514.875C23229.8,560.34 23232.1,610.723 23217.4,648.637C23207.8,673.522 23191.1,693.227 23166.4,703.625C23141.6,867.074 23058.5,1000.62 22939.7,1078.99C22925,1088.7 22909.8,1097.56 22894,1105.53ZM22260,1100.26C22241,1126.29 22220.1,1159.05 22210,1193.64C22215.9,1194.76 22225.5,1196.58 22274.2,1232.65C22282.1,1238.46 22303,1261.28 22322.3,1284.53C22339.2,1213.4 22360.2,1176.49 22365.1,1167.85C22344.5,1252.52 22346.7,1252.86 22325.2,1321.67C22300.3,1401.17 22286,1393.98 22269.9,1407.86C22274.1,1409.08 22289.2,1406.74 22321.7,1424.54C22358.3,1444.61 22379.2,1474.64 22383.2,1477.48C22407.2,1494.28 22431.4,1503.43 22435.9,1505.12C22452.9,1511.57 22462,1511.02 22485.5,1508.86C22494.5,1508.03 22509.6,1506.4 22529.1,1515.6C22558.9,1529.62 22564.8,1548.84 22566,1552.85C22588.8,1501.24 22668.1,1515.38 22677.7,1514.11C22692.8,1512.13 22716.6,1502.66 22742.8,1491.99C22779.3,1448.99 22812.9,1420.29 22852.7,1407.11C22850.4,1387.73 22832.9,1378.43 22821.9,1340.1C22820.8,1336.36 22809,1312.69 22789.8,1249.52C22782.7,1226.19 22775,1194.92 22775.4,1177.82C22793,1209.4 22797.1,1234.59 22815.4,1278.04C22816,1276.84 22816.4,1273.52 22823.1,1265.26C22837,1248.24 22892.3,1201.28 22931.4,1186.85C22922.2,1151.34 22904.2,1140.48 22875.5,1113.43C22788.4,1149.46 22685.2,1176.56 22580,1175.56C22470.3,1174.52 22358.4,1143.17 22260,1100.26ZM22580,1165.26C22691.2,1166.31 22799.9,1135.57 22889.4,1096.3C22993.4,1043.66 23076.6,949.757 23122.8,829.496C23183.3,671.981 23129,645.24 23102.2,621.885C23106.8,624.887 23162.3,653.138 23163.2,694.141C23171.2,689.472 23217,662.772 23217,591.594C23217,573.705 23201.8,386.757 23060.1,414.092C23072.7,445.828 23072.2,445.784 23080.7,478.936C23065.7,449.054 23054.2,400.673 22920.2,316.736C22618.8,128.096 22258.4,199.31 22070.9,433.618C22069,435.957 22039.8,489.204 22038.9,490.781C22040.6,484.328 22045.8,461.985 22057.7,439.537C21956.5,403.225 21925.6,521.918 21921.3,555.706C21920.4,562.406 21915.5,601.52 21930.1,639.662C21947.1,683.851 21971.4,699.945 21983.8,708.614C21986.4,697.108 21985.5,696.726 21998.2,669.627C21992.1,709.94 21992.8,718.42 21997,736.233C22004.4,767.838 22023.6,841.447 22070.3,913.46C22096.3,953.514 22156,1035.04 22278.1,1096.67C22282.2,1098.77 22328.4,1117.92 22377,1132.35C22412.6,1142.93 22490.4,1164.41 22580,1165.26ZM22363.1,1473.54C22361.9,1468.18 22358.2,1458.36 22335.7,1443.33C22292.6,1414.59 22152.3,1379.27 22105.9,1466.81C22032.4,1605.38 22221.6,1767.61 22443.6,1698.5C22469.3,1721.65 22499,1746.02 22527,1743.62C22535.6,1742.89 22541.1,1738.98 22541.2,1738.96C22546.8,1735.43 22546,1734.69 22549.3,1728.92C22537.3,1734.6 22520.2,1741.11 22502.5,1711.1C22508.2,1714.36 22525.3,1725.58 22546.4,1718.24C22556,1714.91 22553.4,1712.17 22554.8,1702.11C22554.8,1702.11 22525.5,1708.43 22512.9,1684.19C22509.9,1678.46 22505.4,1656.96 22515.7,1671.19C22525.9,1685.37 22533.4,1689.23 22546.3,1687.68C22559.8,1686.07 22560.4,1674.19 22560.7,1658.56C22559.9,1658.76 22523.1,1673.56 22511.7,1644.79C22507.4,1634 22509,1618.39 22511.7,1619.19C22512.4,1619.41 22530.4,1663.92 22560.8,1642.76C22568.1,1637.71 22571.5,1621.16 22570.2,1611.22C22568.9,1601.34 22563.4,1595.24 22559.9,1591.25C22554,1584.54 22552.8,1581.91 22546.5,1580.59C22546.8,1580.18 22546.8,1580.17 22549.4,1574.85C22550.1,1574.39 22561.3,1574.33 22550.7,1555.54C22526.4,1512.15 22490.1,1525.8 22473.4,1522.5C22465.3,1520.89 22450.6,1525.92 22404.2,1500.75C22381.1,1488.25 22314.3,1462.72 22279,1460.73C22313.5,1459.59 22340,1465.29 22363.1,1473.54ZM22868.4,1402.79C22900.8,1395.66 22937.6,1398.06 22983.2,1410.59C22999.1,1414.96 23037.3,1408.69 23061.5,1395.38C23083.4,1383.35 23097.8,1363.85 23135.6,1364.18C23203.1,1364.75 23239.7,1323.04 23242.4,1302.99C23243.5,1294.42 23227.6,1277.74 23197,1290.97C23170,1302.62 23159.1,1319.17 23156.7,1321.91C23158,1317.64 23164.1,1298.31 23196.6,1282.79C23219.3,1271.96 23236.7,1273.43 23236.7,1273.41C23264.7,1242.4 23280.5,1204.04 23257.6,1193.78C23247.5,1189.25 23231.3,1184.75 23209.8,1201.06C23208.1,1202.39 23198.4,1209.76 23190.8,1220.89C23183.9,1231.13 23183,1243.41 23182.9,1245.47C23181.7,1246.2 23178.1,1248.41 23172.2,1259.47C23169.6,1264.34 23169.3,1268.18 23167,1276.09C23165.1,1271.88 23163.1,1262.56 23167.2,1253.72C23171.8,1244.07 23174.3,1243.26 23175.9,1242.07C23175.9,1240.9 23174.3,1230.61 23185.4,1213.07C23194.6,1198.66 23199,1197.53 23199.2,1196.25C23199.6,1194.8 23197.8,1131.33 23130,1136.55C23122.2,1160.9 23115.7,1160.97 23122.5,1178.53C23126.4,1188.62 23135.3,1198.08 23142,1205.89C23140,1205.9 23124.8,1205.93 23123.8,1222.54C23123.3,1231.18 23139.3,1236.4 23150.9,1280.91C23130.8,1253.38 23134.5,1246.45 23108.6,1229.05C23098.7,1222.37 23098.6,1222.72 23089.2,1215.41C23091.9,1237.38 23087.4,1239.58 23078.7,1248.85C23100.3,1258.95 23100.9,1263.88 23108.1,1280.54C23074.6,1257.16 23065.1,1259.31 23035.7,1256.91C23036.8,1256.54 23084.9,1247.11 23075.3,1199.36C23073.4,1190.04 23062.1,1196.71 23049.9,1181.29C23053.2,1181.65 23095.3,1192.61 23117,1148.66C23130,1122.38 23119.4,1098.4 23107.4,1106.99C23072.2,1132.02 23049.5,1115.46 23029.8,1129.95C23017,1139.34 23006.6,1152.73 23000.5,1170.89C22989.6,1203.34 22998.1,1207.81 22997.1,1231.95C22990.6,1223.54 22987.8,1215.65 22985.1,1203.19C22979.2,1203.77 22955.2,1204.03 22924,1229.47C22929.2,1218.64 22931,1208.26 22931.3,1206.35C22861.5,1236.98 22819.9,1287.8 22822.2,1300.03C22828,1331.7 22851.5,1378.98 22868.4,1402.79ZM22768.1,1481.71C22805.5,1466.8 22843.5,1453.41 22865.6,1458.11C22825,1478.46 22822.1,1471.19 22755.7,1502.63C22690.1,1533.7 22685.9,1527.34 22645.9,1525.63C22617.1,1524.41 22593.2,1540.93 22591.3,1545.41C22587.1,1555.16 22570.9,1551.86 22580.3,1583.16C22587.9,1608.68 22581.9,1645.62 22589.4,1647.53C22597.1,1649.48 22617.3,1646.76 22628.7,1624.91C22630.5,1621.42 22630.7,1617.87 22632.1,1621.02C22633,1622.94 22636.5,1656.15 22590.9,1663.02C22584.2,1664.02 22581.6,1662.44 22581.2,1669.19C22580.7,1677.54 22579.9,1685.57 22593.9,1687.42C22602.1,1688.52 22618.5,1684.52 22627.5,1674.3C22632.4,1668.74 22632.8,1668.67 22633.1,1669.2C22634.1,1671.05 22631.5,1693.21 22611.7,1699.65C22594.3,1705.29 22585.7,1700.73 22585.3,1700.61C22584.7,1710.07 22586.1,1718.26 22600.4,1717.8C22608.6,1717.54 22619.8,1714.02 22631.6,1701.81C22631.1,1706.93 22629.9,1728.67 22595.9,1726.91L22591.6,1726.26C22570.9,1762.31 22648.8,1748.74 22692.6,1698.62C22993.5,1789.07 23107.2,1551.91 23008,1436.17C22999.2,1425.89 22925.2,1403.89 22870.4,1417.86C22782.2,1440.31 22774.3,1468.32 22768.1,1481.71ZM21993.2,1202.53C21995,1194.16 22013.4,1175.47 22015.4,1173.38C22002.1,1153.35 22003.9,1152.37 22002.5,1128.43C21986.8,1133.24 21931.6,1143.63 21935.8,1201.73C21935.9,1203.12 21938.8,1201.16 21946.5,1215.53C21949.1,1220.48 21949.8,1223.61 21951.2,1234.75C21971.9,1238.97 21983.6,1264.68 21987.6,1272.43C21982.5,1268.29 21977.8,1265 21965.4,1253.33C21957.5,1245.88 21947.6,1244.38 21945.4,1240.66C21940.9,1232.79 21947.6,1222.23 21917.3,1202.82C21898.6,1190.88 21875.4,1197.28 21871.3,1213.81C21864.8,1239.59 21906.6,1274.14 21912.7,1274.16C21926.4,1274.21 21942.3,1264.57 21962.8,1279.28C21969.9,1284.34 21972.8,1294.97 21973.2,1296.53C22000,1296.92 22005.7,1320.36 22006.1,1321.84C21992.3,1309.65 21992.2,1309.06 21974.1,1305.67C21964.9,1286.92 21943.4,1280.07 21928.1,1283.83C21908,1288.78 21894.3,1309.45 21901,1317.15C21942.8,1364.98 21986.7,1337.47 22008.1,1359.41C22045.5,1397.62 22089.2,1406.17 22126.6,1412.42C22134.8,1413.79 22167.9,1403.83 22198.2,1401.65C22286.8,1395.31 22294.2,1380.13 22312.7,1302.02C22313.7,1298.06 22314.7,1293.76 22284.8,1259.44C22257.6,1228.17 22236.6,1221.54 22212.6,1210.69C22212.6,1210.73 22211,1215.88 22213.3,1231.25C22189.8,1218.65 22165.7,1210.12 22144.1,1215.08C22139.9,1185.72 22116,1121.3 22090.9,1126.56C22046.6,1135.86 22048.1,1115.36 22032.3,1110.09C22016.2,1104.69 22001.7,1132.06 22018.3,1157.59C22040.5,1191.72 22081.7,1186.3 22083.9,1186.59C22069.1,1195.83 22050.4,1184.87 22052.5,1218.76C22055,1258.13 22076.5,1263.75 22081.3,1265.84C22057.3,1265.4 22049.4,1267.64 22023.5,1281.5C22028.2,1272.02 22040,1257.1 22056.7,1257.68C22044.7,1247.67 22040.1,1236.39 22039.2,1226C22019.7,1217.64 22010.6,1239.66 22005.1,1249.42C22006.2,1240.16 22005.9,1240.21 22008.2,1231.23C22007.8,1230.6 21991.5,1210.36 21993.2,1202.53ZM23091.7,1190.66L23091.6,1190.55L23091.6,1190.58C23091.6,1190.61 23091.6,1190.64 23091.7,1190.66ZM23091.7,1190.66C23092.3,1192.33 23099.5,1211.41 23105.9,1210.7C23111.6,1210.06 23119.1,1207.07 23119.7,1201.39C23120.8,1192.46 23111.7,1185.43 23111.8,1172.96C23107.2,1179.3 23107.4,1179.48 23101.3,1184.31C23100.6,1184.86 23092.5,1191.23 23091.7,1190.66ZM22048.4,1191.43C22036.9,1188.54 22037,1188.78 22026.7,1183.5C22019.3,1188.11 22013.4,1193.32 22011,1200.1C22007,1211.68 22012.5,1219.47 22013.5,1220.83C22014,1220.09 22015.2,1218.36 22023.3,1215.24C22031.4,1212.11 22037.6,1212.08 22039.7,1211.95C22041.8,1205.15 22042.1,1204.93 22042.1,1204.63C22042,1203.66 22045.9,1194.58 22048.4,1191.43ZM23133.4,528.906C23133.3,529.939 23133.3,530.163 23133.5,529.143C23133.5,529.095 23133.5,529.015 23133.4,528.906C23133.8,524.959 23136.1,509.195 23137.7,505.812C23138.4,507.406 23138.8,508.214 23141.2,527.215C23142.6,537.555 23143.5,537.348 23143.6,538.25C23153.8,546.944 23164.2,565.736 23165.7,568.35C23163.9,566.587 23156.2,558.028 23144.7,550.681C23145.9,558.881 23146.8,567.321 23141.6,579.015C23140.1,573.075 23140.7,573 23138.5,563.131C23134.6,545.044 23134.9,544.991 23134.3,543.47C23134.1,542.782 23133.7,543.134 23121.9,529.513C23121.6,529.085 23114.1,520.698 23112.6,517.836C23110.4,513.627 23131.5,526.775 23133.4,528.906ZM21973.3,535.546C21974.5,532.952 21990.8,514.156 21989.9,518.84C21989.2,522.024 21984.6,532.232 21984.4,532.751C21977.2,549.234 21976.7,549.015 21976.7,549.741C21976.6,551.349 21976.9,551.321 21978.5,569.768C21979.3,579.833 21979.9,579.724 21980.2,585.841C21971.8,576.218 21970.2,567.867 21968.9,559.689C21960.1,570.107 21955.2,580.562 21954.1,582.769C21954.3,581.637 21955.1,577.798 21956.4,572.858L21956.2,573.219C21956.3,573.092 21956.3,572.966 21956.4,572.841C21958.5,565.011 21961.9,554.424 21966.3,547.477C21966.1,546.608 21967,546.527 21965.3,536.249C21964.7,532.903 21964.2,530.123 21963.9,527.803L21962.1,521.857C21962.5,522.486 21962.9,523.165 21963.2,523.889C21962.1,516.781 21962.2,515.985 21962.3,514.761C21964.9,517.516 21971.7,531.891 21973.3,535.546C21973.2,535.678 21973.2,535.769 21973.2,535.811C21973.7,536.724 21973.7,536.502 21973.3,535.546Z"/>
            </g>
            <g transform="matrix(1,0,0,1,2070.18,-198.591)">
                <path d="M22674.7,813.597C22675.4,810.685 22679.2,791.724 22703.8,774.28C22700.4,779.497 22682.9,801.312 22686,828.947C22688.6,851.529 22702.6,864.846 22709.7,872.651C22705.4,870.898 22673,857.908 22673.2,826.58C22673.2,825.653 22673.2,824.725 22673.3,823.796C22631.6,818.555 22631.6,820.844 22589.6,821.954C22547.4,823.07 22547.2,821.026 22476.2,834.935C22520.7,817.563 22534.4,815.979 22554.1,814.378C22561.7,813.755 22614.3,805.983 22674.7,813.597Z"/>
            </g>
            <g transform="matrix(1,0,0,1,2496.3,-226.075)">
                <path d="M22266.9,663.426C22263.2,645.618 22261,633.704 22261,615.856C22261,549.58 22294.8,495.772 22336.4,495.772C22353.5,495.772 22409.7,512.453 22411.7,618.336C22412.9,615.822 22424.5,591.601 22428.9,588.04C22429.9,587.233 22431,586.841 22436.5,595.994C22450.5,577.28 22452.7,555.89 22453.9,549.54C22454.1,554.918 22455,593.474 22442.7,615.849C22438,624.43 22432.1,606.125 22427.1,614.61C22417.8,630.471 22422.4,637.341 22407.4,655.452C22407.4,655.456 22400.8,694.3 22374.8,719.175C22366.6,727.014 22353,735.941 22336.4,735.941C22300.7,735.941 22284.8,700.913 22270,681.458C22251.6,682.111 22240.4,632.263 22245.1,630.189C22249.3,628.378 22248.5,650.968 22266.9,663.426ZM22336.4,509.272C22323.5,509.272 22311.8,516.434 22302.1,527.732C22285.2,547.582 22274.5,579.745 22274.5,615.856C22274.5,651.967 22285.2,684.13 22302.1,703.98C22311.8,715.279 22323.5,722.441 22336.4,722.441C22349.3,722.441 22360.9,715.279 22370.6,703.98C22387.6,684.13 22398.2,651.967 22398.2,615.856C22398.2,579.745 22387.6,547.582 22370.6,527.732C22360.9,516.434 22349.3,509.272 22336.4,509.272Z" style="fill:rgb(145,255,251);"/>
            </g>
            <g transform="matrix(1,0,0,1,2086.17,-226.075)">
                <path d="M22336.4,735.941C22296.9,735.941 22270,688.889 22263.5,646.656C22258.8,615.924 22263.6,605.651 22256.2,611.188C22243.8,620.452 22237.6,569.377 22231.8,564.857C22225.4,559.882 22213,571.787 22209.1,565.837C22200.7,553.125 22207.2,515.335 22207.9,511.011C22215.2,546.534 22215.7,550.984 22230.1,550.617C22245.2,550.234 22243.4,557.269 22253.3,583.349C22263.4,609.889 22261.3,561.248 22286.9,525.347C22308,495.772 22331.8,495.772 22336.4,495.772C22378,495.772 22411.7,549.58 22411.7,615.856C22411.7,661.36 22393.9,693.222 22390.5,699.226C22409.7,681.729 22411.9,671.554 22425.5,656.092C22423.3,661.253 22404.2,705.243 22387.9,715.491C22376.6,722.609 22374.5,720.977 22373.5,720.234C22371,722.231 22353.6,735.941 22336.4,735.941ZM22336.4,509.272C22323.5,509.272 22311.8,516.434 22302.1,527.732C22285.2,547.582 22274.5,579.745 22274.5,615.856C22274.5,651.967 22285.2,684.13 22302.1,703.98C22311.8,715.279 22323.5,722.441 22336.4,722.441C22349.3,722.441 22360.9,715.279 22370.6,703.98C22387.6,684.13 22398.2,651.967 22398.2,615.856C22398.2,579.745 22387.6,547.582 22370.6,527.732C22360.9,516.434 22349.3,509.272 22336.4,509.272Z" style="fill:rgb(145,255,251);"/>
            </g>
            <g transform="matrix(1,0,0,1,2070.18,-198.591)">
                <path d="M22762.5,481.788C22775.4,481.788 22787.1,488.95 22796.7,500.248C22813.7,520.098 22824.4,552.261 22824.4,588.372C22824.4,624.483 22813.7,656.646 22796.7,676.496C22787.1,687.795 22775.4,694.957 22762.5,694.957C22749.6,694.957 22737.9,687.795 22728.3,676.496C22711.3,656.646 22700.6,624.483 22700.6,588.372C22700.6,552.261 22711.3,520.098 22728.3,500.248C22737.9,488.95 22749.6,481.788 22762.5,481.788Z" style="fill:white;"/>
            </g>
            <g transform="matrix(1,0,0,1,2070.18,-198.591)">
                <path d="M22352.4,481.788C22365.3,481.788 22376.9,488.95 22386.6,500.248C22403.6,520.098 22414.2,552.261 22414.2,588.372C22414.2,624.483 22403.6,656.646 22386.6,676.496C22376.9,687.795 22365.3,694.957 22352.4,694.957C22339.5,694.957 22327.8,687.795 22318.1,676.496C22301.1,656.646 22290.5,624.483 22290.5,588.372C22290.5,552.261 22301.1,520.098 22318.1,500.248C22327.8,488.95 22339.5,481.788 22352.4,481.788Z" style="fill:white;"/>
            </g>
            <g transform="matrix(1,0,0,1,2070.18,-198.591)">
                <path d="M22687.7,393.051C22705.7,365.757 22745.4,356.396 22782.9,361.874C22820.4,367.363 22855.2,387.713 22863.5,417.482C22865.7,425.181 22864.4,430.236 22861.9,433.548C22859.4,437.04 22855.2,438.92 22850.5,439.502C22843.6,440.357 22835.5,438.314 22834.2,438.184C22784.8,433.125 22785,432.476 22735.3,433.961C22717.9,434.482 22706.1,432.707 22698.4,429.851C22689.1,426.409 22684.8,421.257 22683,416.163C22679.5,406.213 22686.2,395.301 22687.7,393.051ZM22692,395.913C22689.6,399.534 22669.1,430.737 22735.1,428.764C22785.2,427.268 22785,427.917 22834.8,433.011C22837.1,433.252 22864.7,441.024 22858.5,418.889C22842.7,362.767 22726,344.35 22692,395.913ZM22255.8,410.079C22255.7,407.329 22256.5,404.494 22258.3,401.683C22260.3,398.541 22263.9,395.295 22268.7,392.201C22285.1,381.764 22317.8,372.109 22350.7,368.106C22379.1,364.646 22407.6,365.465 22426.1,373.105C22440.1,378.907 22448.6,388.52 22448.9,402.408C22449.1,411.759 22446.4,418.586 22442,423.599C22437.7,428.512 22431.7,431.705 22424.8,433.573C22406.6,438.452 22381.6,433.933 22371.2,433.856C22339.3,433.618 22298,436.914 22275.5,430.08C22263.5,426.427 22256.4,419.825 22255.8,410.079ZM22261,409.782C22262.5,435.426 22326.4,428.322 22371.2,428.656C22388.1,428.781 22444.5,441.399 22443.7,402.515C22442.5,343.68 22259.4,380.935 22261,409.782ZM22355.9,755.302C22357.2,762.897 22355,770.254 22350,777.042C22343.5,786.027 22331.9,794.085 22318.2,800.233C22298.2,809.175 22273.7,814.163 22254.6,812.87C22240.5,811.915 22229.2,807.346 22223.7,799.356C22219.5,793.367 22219.8,786.122 22224.1,778.568C22231.9,764.832 22254.6,749.422 22279.2,742.01C22303.2,734.79 22328.8,735.318 22342.8,741.285C22350.4,744.547 22355,749.557 22355.9,755.302ZM22350.8,756.139C22348.5,741.962 22313,737.248 22280.7,746.989C22247.6,756.962 22217.8,781.736 22228,796.391C22248,825.264 22357.2,795.176 22350.8,756.139ZM22799.3,749.568C22800.3,743.794 22805.3,738.664 22813.7,735.385C22829.1,729.368 22857.1,728.872 22883.5,736.153C22910.6,743.655 22935.6,759.278 22944.2,773.182C22949.1,780.955 22949.4,788.414 22944.7,794.578C22938.7,802.579 22926.4,807.167 22911,808.124C22889.9,809.432 22862.9,804.376 22840.9,795.332C22825.8,789.113 22813,780.955 22805.8,771.867C22800.3,764.909 22797.9,757.352 22799.3,749.568ZM22804.4,750.477C22797.4,790.206 22918.3,820.827 22940.6,791.442C22951.8,776.528 22918.7,751.315 22882.1,741.165C22846.2,731.251 22807,736.049 22804.4,750.477Z"/>
            </g>
            <path d="M24874.6,551.886C24877.2,537.458 24916.4,532.66 24952.3,542.574C24988.9,552.724 25022,577.937 25010.7,592.852C24988.5,622.236 24867.5,591.616 24874.6,551.886Z" style="fill:rgb(243,165,230);"/>
            <path d="M24421,557.549C24427.3,596.586 24318.2,626.673 24298.1,597.8C24288,583.145 24317.8,558.372 24350.9,548.398C24383.2,538.657 24418.7,543.372 24421,557.549Z" style="fill:rgb(243,165,230);"/>
            <path d="M24762.2,197.322C24796.2,145.76 24912.9,164.177 24928.7,220.298C24934.9,242.433 24907.3,234.662 24905,234.42C24855.2,229.326 24855.4,228.678 24805.3,230.173C24739.3,232.146 24759.8,200.943 24762.2,197.322Z" style="fill:rgb(188,197,118);"/>
            <path d="M24331.2,211.192C24329.6,182.344 24512.7,145.09 24513.9,203.925C24514.7,242.809 24458.3,230.191 24441.4,230.065C24396.6,229.731 24332.7,236.836 24331.2,211.192Z" style="fill:rgb(188,197,118);"/>
            <path d="M24330.2,901.666C24428.6,944.578 24540.5,975.929 24650.1,976.967C24755.4,977.964 24858.6,950.869 24945.7,914.838C24974.4,941.891 24992.4,952.746 25001.5,988.255C24962.5,1002.69 24907.2,1049.65 24893.3,1066.67C24886.6,1074.93 24886.2,1078.25 24885.6,1079.45C24867.2,1036 24863.1,1010.81 24845.6,979.227C24845.2,996.33 24852.9,1027.6 24860,1050.93C24879.2,1114.1 24891,1137.77 24892.1,1141.51C24903,1179.84 24920.6,1189.14 24922.9,1208.52C24883.1,1221.7 24849.5,1250.4 24813,1293.4C24786.8,1304.07 24763,1313.54 24747.9,1315.52C24738.3,1316.79 24658.9,1302.65 24636.2,1354.26C24635,1350.25 24629.1,1331.03 24599.3,1317.01C24579.8,1307.81 24564.7,1309.44 24555.6,1310.27C24532.2,1312.43 24523.1,1312.98 24506,1306.53C24501.6,1304.84 24477.3,1295.69 24453.4,1278.89C24449.4,1276.05 24428.5,1246.02 24391.9,1225.95C24359.4,1208.15 24344.3,1210.49 24340.1,1209.27C24356.2,1195.39 24370.4,1202.58 24395.3,1123.08C24416.9,1054.27 24414.7,1053.93 24435.3,969.258C24430.4,977.903 24409.4,1014.81 24392.5,1085.94C24373.2,1062.69 24352.2,1039.87 24344.4,1034.06C24295.7,997.993 24286.1,996.169 24280.2,995.046C24290.3,960.459 24311.2,927.696 24330.2,901.666Z" style="fill:rgb(86,115,129);"/>
            <clipPath id="_clip2">
                <path d="M24330.2,901.666C24428.6,944.578 24540.5,975.929 24650.1,976.967C24755.4,977.964 24858.6,950.869 24945.7,914.838C24974.4,941.891 24992.4,952.746 25001.5,988.255C24962.5,1002.69 24907.2,1049.65 24893.3,1066.67C24886.6,1074.93 24886.2,1078.25 24885.6,1079.45C24867.2,1036 24863.1,1010.81 24845.6,979.227C24845.2,996.33 24852.9,1027.6 24860,1050.93C24879.2,1114.1 24891,1137.77 24892.1,1141.51C24903,1179.84 24920.6,1189.14 24922.9,1208.52C24883.1,1221.7 24849.5,1250.4 24813,1293.4C24786.8,1304.07 24763,1313.54 24747.9,1315.52C24738.3,1316.79 24658.9,1302.65 24636.2,1354.26C24635,1350.25 24629.1,1331.03 24599.3,1317.01C24579.8,1307.81 24564.7,1309.44 24555.6,1310.27C24532.2,1312.43 24523.1,1312.98 24506,1306.53C24501.6,1304.84 24477.3,1295.69 24453.4,1278.89C24449.4,1276.05 24428.5,1246.02 24391.9,1225.95C24359.4,1208.15 24344.3,1210.49 24340.1,1209.27C24356.2,1195.39 24370.4,1202.58 24395.3,1123.08C24416.9,1054.27 24414.7,1053.93 24435.3,969.258C24430.4,977.903 24409.4,1014.81 24392.5,1085.94C24373.2,1062.69 24352.2,1039.87 24344.4,1034.06C24295.7,997.993 24286.1,996.169 24280.2,995.046C24290.3,960.459 24311.2,927.696 24330.2,901.666Z"/>
            </clipPath>
            <g clip-path="url(#_clip2)">
                <path d="M24402.1,1074.03C24407.9,1158.4 24386.9,1178.91 24464.3,1213.71C24523.9,1240.54 24671.1,1266.04 24726.9,1245.14C24776.4,1226.61 24783,1250.05 24827.6,1221.95C24867.8,1196.62 24896.4,1145.37 24900.7,1137.57C24909.8,1153.15 25044.4,1297.6 24691.1,1381.32C24590.5,1405.16 24400.4,1454.99 24334.1,1251.17C24303,1155.66 24375.9,1167.53 24402.1,1074.03Z" style="fill:rgb(72,96,108);"/>
            </g>
        </g>
    </g>
</svg>
