<?xml version="1.0" encoding="UTF-8" standalone="no"?>
<!DOCTYPE svg PUBLIC "-//W3C//DTD SVG 1.1//EN" "http://www.w3.org/Graphics/SVG/1.1/DTD/svg11.dtd">
<svg width="100%" height="100%" viewBox="0 0 553 246" version="1.1" xmlns="http://www.w3.org/2000/svg" xmlns:xlink="http://www.w3.org/1999/xlink" xml:space="preserve" xmlns:serif="http://www.serif.com/" style="fill-rule:evenodd;clip-rule:evenodd;stroke-linejoin:round;stroke-miterlimit:2;">
    <g transform="matrix(1,0,0,1,-29654.5,-3004.36)">
        <g transform="matrix(1,0,0,1,-46.2268,35.3515)">
            <path d="M29866.7,3077.03C29874.7,3052.89 29882.3,3007.54 29932.7,2980.91C29958.5,2967.33 29988.7,2965.31 30019,2975.18C30087.6,2997.5 30098.5,3056.83 30105.8,3076.24C30134.2,3074.96 30192.4,3058.6 30236.3,3100.11C30259.4,3121.92 30264.1,3158.96 30216.9,3182.78C30111.3,3236.09 29735.2,3215.95 29706.9,3166.35C29685.9,3129.6 29722.5,3092.55 29751.6,3079.58C29819.9,3049.16 29861.5,3075.33 29866.7,3077.03Z" style="fill:white;"/>
        </g>
        <g transform="matrix(0.570153,0,0,0.570153,12839.3,1417.03)">
            <path d="M29866.7,3077.03C29874.7,3052.89 29882.3,3007.54 29932.7,2980.91C29958.5,2967.33 29988.7,2965.31 30019,2975.18C30087.6,2997.5 30098.5,3056.83 30105.8,3076.24C30134.2,3074.96 30192.4,3058.6 30236.3,3100.11C30259.4,3121.92 30264.1,3158.96 30216.9,3182.78C30111.3,3236.09 29735.2,3215.95 29706.9,3166.35C29685.9,3129.6 29722.5,3092.55 29751.6,3079.58C29819.9,3049.16 29861.5,3075.33 29866.7,3077.03Z" style="fill:rgb(220,247,250);"/>
        </g>
    </g>
</svg>
