<?xml version="1.0" encoding="UTF-8" standalone="no"?>
<!DOCTYPE svg PUBLIC "-//W3C//DTD SVG 1.1//EN" "http://www.w3.org/Graphics/SVG/1.1/DTD/svg11.dtd">
<svg width="100%" height="100%" viewBox="0 0 280 176" version="1.1" xmlns="http://www.w3.org/2000/svg" xmlns:xlink="http://www.w3.org/1999/xlink" xml:space="preserve" xmlns:serif="http://www.serif.com/" style="fill-rule:evenodd;clip-rule:evenodd;stroke-linejoin:round;stroke-miterlimit:2;">
    <g transform="matrix(1,0,0,1,-29254.8,-3033.66)">
        <g transform="matrix(1,0,0,1,651.39,102.976)">
            <path d="M28603.9,3003.39C28609.5,2941.94 28689.6,2925.82 28762.4,2931.88C28841.6,2938.47 28880,2954.5 28882.8,3015.54C28885.4,3073.18 28834.9,3098.57 28772.4,3104.74C28700.8,3111.8 28594.9,3102.36 28603.9,3003.39Z" style="fill:white;"/>
        </g>
        <g transform="matrix(0.681701,0,0,0.681701,9800.31,1091.79)">
            <path d="M28603.9,3003.39C28609.5,2941.94 28689.6,2925.82 28762.4,2931.88C28841.6,2938.47 28880,2954.5 28882.8,3015.54C28885.4,3073.18 28834.9,3098.57 28772.4,3104.74C28700.8,3111.8 28594.9,3102.36 28603.9,3003.39Z" style="fill:rgb(220,247,250);"/>
        </g>
    </g>
</svg>
