<?xml version="1.0" encoding="UTF-8" standalone="no"?>
<!DOCTYPE svg PUBLIC "-//W3C//DTD SVG 1.1//EN" "http://www.w3.org/Graphics/SVG/1.1/DTD/svg11.dtd">
<svg width="100%" height="100%" viewBox="0 0 4589 965" version="1.1" xmlns="http://www.w3.org/2000/svg" xmlns:xlink="http://www.w3.org/1999/xlink" xml:space="preserve" xmlns:serif="http://www.serif.com/" style="fill-rule:evenodd;clip-rule:evenodd;stroke-linecap:round;stroke-miterlimit:0;">
    <g transform="matrix(1,0,0,1,-22834.6,4672.42)">
        <g transform="matrix(1,0,0,1.87042,1900.46,-2979.42)">
            <path d="M20934.1,-389.709C21150,-513.84 21416.8,-619.969 21720.6,-702.053C22159.6,-820.624 22676,-889.02 23228.4,-889.02C23772.1,-889.02 24280.9,-822.778 24715.3,-707.659C25027.8,-624.825 25301.9,-516.685 25522.7,-389.709L20934.1,-389.709ZM20965.4,-396.927L25491.5,-396.927C25275.5,-518.051 25010.3,-621.41 24709.3,-701.193C24276.6,-815.846 23769.9,-881.803 23228.4,-881.803C22678.2,-881.803 22163.9,-813.703 21726.7,-695.611C21434.3,-616.612 21176.4,-515.245 20965.4,-396.927Z" style="fill:rgb(30,81,57);"/>
        </g>
        <g transform="matrix(1,0,0,1,-10.4774,1298.12)">
            <path d="M22845.1,-5006.45C23061,-5238.63 23327.7,-5437.14 23631.6,-5590.66C24070.5,-5812.44 24586.9,-5940.37 25139.4,-5940.37C25683,-5940.37 26191.8,-5816.47 26626.2,-5601.15C26938.8,-5446.22 27212.8,-5243.95 27433.7,-5006.45L22845.1,-5006.45Z" style="fill:url(#_Linear1);"/>
        </g>
        <g transform="matrix(1,0,0,1,-10.4774,1298.12)">
            <path d="M22845.1,-5006.45C23061,-5238.63 23327.7,-5437.14 23631.6,-5590.66C24070.5,-5812.44 24586.9,-5940.37 25139.4,-5940.37C25683,-5940.37 26191.8,-5816.47 26626.2,-5601.15C26938.8,-5446.22 27212.8,-5243.95 27433.7,-5006.45L22845.1,-5006.45ZM22876.3,-5019.95L27402.4,-5019.95C27186.4,-5246.5 26921.3,-5439.83 26620.2,-5589.06C26187.6,-5803.51 25680.9,-5926.87 25139.4,-5926.87C24589.2,-5926.87 24074.8,-5799.5 23637.7,-5578.62C23345.2,-5430.86 23087.3,-5241.26 22876.3,-5019.95Z" style="fill:rgb(30,81,57);"/>
        </g>
        <path d="M26086.3,-4009.18C26087.9,-4014.34 26098.5,-4047.86 26134.7,-4056.47C26138.9,-4057.47 26149.5,-4057.91 26143.6,-4003.1C26169.9,-4028.83 26188.2,-4030.73 26191,-3993.16" style="fill:none;stroke:rgb(44,104,51);stroke-width:13.5px;"/>
        <path d="M23819.2,-3962.72C23810.1,-3945.69 23817.9,-3990.85 23827.6,-4001.99C23830.5,-4005.34 23839.8,-4012.18 23864.7,-3960.82C23877.1,-3986.02 23891.9,-4030.8 23909.7,-3985.33" style="fill:none;stroke:rgb(44,104,51);stroke-width:13.5px;"/>
        <path d="M24021,-4362.55C24018.7,-4364.91 24002.1,-4381.88 24034.8,-4401.59C24048.9,-4410.11 24066.3,-4373.57 24067.9,-4370.28C24072,-4380.11 24076.3,-4407.01 24092.7,-4389.07" style="fill:none;stroke:rgb(44,104,51);stroke-width:13.5px;"/>
        <path d="M25908,-4330.8C25905,-4339.06 25941.3,-4366.73 25957.1,-4372.54C25961.3,-4374.07 25982.9,-4382 25974.1,-4319.63C25995.2,-4336.62 26010.9,-4355.04 26017.5,-4321.86" style="fill:none;stroke:rgb(44,104,51);stroke-width:13.5px;"/>
        <path d="M26418.7,-4053.37C26419.4,-4058.54 26454.1,-4131.02 26478.9,-4028.11C26526.1,-4050.95 26523.7,-4059.55 26555.9,-4055.62" style="fill:none;stroke:rgb(44,104,51);stroke-width:13.5px;"/>
        <g transform="matrix(1,0,0,1,0,32.4729)">
            <path d="M24085,-4301.29C24068.4,-4270.03 24031.3,-4250.66 23971.3,-4219.67C24102.3,-4204.67 24156.4,-4147.55 24289.3,-4213.63C24361.4,-4249.48 24357.2,-4258.51 24353.7,-4264.05C24339.3,-4286.98 24337.5,-4354.63 24336.5,-4377.35C24332.1,-4369.18 24300.3,-4309.94 24256.7,-4293.4C24149.7,-4252.81 24121,-4298.23 24085,-4301.29Z" style="fill:rgb(50,137,103);"/>
            <path d="M24085,-4301.29C24121,-4298.23 24149.7,-4252.81 24256.7,-4293.4C24300.3,-4309.94 24332.1,-4369.18 24336.5,-4377.35C24337.5,-4354.63 24339.3,-4286.98 24353.7,-4264.05C24357.2,-4258.51 24361.4,-4249.48 24289.3,-4213.63C24156.4,-4147.55 24102.3,-4204.67 23971.3,-4219.67C24031.3,-4250.66 24068.4,-4270.03 24085,-4301.29ZM24340.3,-4260.36C24336.2,-4268.26 24332.9,-4279.31 24330.6,-4291.82C24328,-4305.34 24326.3,-4320.7 24325.2,-4334.97C24309.7,-4314.23 24287.4,-4290.61 24261.5,-4280.77C24181.2,-4250.3 24141.9,-4265.45 24112.4,-4278.16C24105,-4281.36 24098.4,-4284.54 24091.7,-4286.38C24076.7,-4264.46 24051.2,-4247.25 24013.7,-4226.81C24047.9,-4220.28 24076.9,-4211.72 24104.6,-4205.17C24158.5,-4192.47 24207.4,-4187.99 24283.3,-4225.72C24315.7,-4241.82 24334.6,-4255.85 24340.3,-4260.36Z" style="fill:rgb(50,137,103);"/>
        </g>
        <path d="M24085,-4301.29C24068.4,-4270.03 24031.3,-4250.66 23971.3,-4219.67C24102.3,-4204.67 24156.4,-4147.55 24289.3,-4213.63C24361.4,-4249.48 24357.2,-4258.51 24353.7,-4264.05C24339.3,-4286.98 24337.5,-4354.63 24336.5,-4377.35C24332.1,-4369.18 24300.3,-4309.94 24256.7,-4293.4C24149.7,-4252.81 24121,-4298.23 24085,-4301.29Z" style="fill:rgb(73,184,91);"/>
        <path d="M24085,-4301.29C24121,-4298.23 24149.7,-4252.81 24256.7,-4293.4C24300.3,-4309.94 24332.1,-4369.18 24336.5,-4377.35C24337.5,-4354.63 24339.3,-4286.98 24353.7,-4264.05C24357.2,-4258.51 24361.4,-4249.48 24289.3,-4213.63C24156.4,-4147.55 24102.3,-4204.67 23971.3,-4219.67C24031.3,-4250.66 24068.4,-4270.03 24085,-4301.29ZM24340.3,-4260.36C24336.2,-4268.26 24332.9,-4279.31 24330.6,-4291.82C24328,-4305.34 24326.3,-4320.7 24325.2,-4334.97C24309.7,-4314.23 24287.4,-4290.61 24261.5,-4280.77C24181.2,-4250.3 24141.9,-4265.45 24112.4,-4278.16C24105,-4281.36 24098.4,-4284.54 24091.7,-4286.38C24076.7,-4264.46 24051.2,-4247.25 24013.7,-4226.81C24047.9,-4220.28 24076.9,-4211.72 24104.6,-4205.17C24158.5,-4192.47 24207.4,-4187.99 24283.3,-4225.72C24315.7,-4241.82 24334.6,-4255.85 24340.3,-4260.36Z" style="fill:rgb(44,104,51);"/>
        <g transform="matrix(0.654731,0,0,0.654731,8603.79,-1773.96)">
            <path d="M24085,-4301.29C24068.4,-4270.03 24031.3,-4250.66 23971.3,-4219.67C24102.3,-4204.67 24156.4,-4147.55 24289.3,-4213.63C24361.4,-4249.48 24357.2,-4258.51 24353.7,-4264.05C24339.3,-4286.98 24337.5,-4354.63 24336.5,-4377.35C24332.1,-4369.18 24300.3,-4309.94 24256.7,-4293.4C24149.7,-4252.81 24121,-4298.23 24085,-4301.29Z" style="fill:rgb(50,137,103);"/>
            <path d="M24085,-4301.29C24121,-4298.23 24149.7,-4252.81 24256.7,-4293.4C24300.3,-4309.94 24332.1,-4369.18 24336.5,-4377.35C24337.5,-4354.63 24339.3,-4286.98 24353.7,-4264.05C24357.2,-4258.51 24361.4,-4249.48 24289.3,-4213.63C24156.4,-4147.55 24102.3,-4204.67 23971.3,-4219.67C24031.3,-4250.66 24068.4,-4270.03 24085,-4301.29ZM24331.6,-4262.34C24328.3,-4270.11 24325.6,-4279.8 24323.6,-4290.49C24322,-4298.86 24320.7,-4307.93 24319.8,-4317.01C24304.6,-4299.48 24285.5,-4282.27 24264,-4274.12C24180.8,-4242.55 24140.2,-4258.46 24109.6,-4271.62C24104.2,-4273.94 24099.3,-4276.31 24094.5,-4278.07C24081.2,-4260.77 24061.2,-4246 24033.7,-4229.95C24060.1,-4224.12 24083.6,-4217.45 24106.3,-4212.1C24158.7,-4199.74 24206.3,-4195.38 24280.1,-4232.1C24306.7,-4245.3 24323.9,-4256.78 24331.6,-4262.34Z" style="fill:rgb(50,137,103);"/>
        </g>
        <g transform="matrix(0.654731,0,0,0.654731,8603.79,-1806.43)">
            <path d="M24085,-4301.29C24068.4,-4270.03 24031.3,-4250.66 23971.3,-4219.67C24102.3,-4204.67 24156.4,-4147.55 24289.3,-4213.63C24361.4,-4249.48 24357.2,-4258.51 24353.7,-4264.05C24339.3,-4286.98 24337.5,-4354.63 24336.5,-4377.35C24332.1,-4369.18 24300.3,-4309.94 24256.7,-4293.4C24149.7,-4252.81 24121,-4298.23 24085,-4301.29Z" style="fill:rgb(73,184,91);"/>
            <path d="M24085,-4301.29C24121,-4298.23 24149.7,-4252.81 24256.7,-4293.4C24300.3,-4309.94 24332.1,-4369.18 24336.5,-4377.35C24337.5,-4354.63 24339.3,-4286.98 24353.7,-4264.05C24357.2,-4258.51 24361.4,-4249.48 24289.3,-4213.63C24156.4,-4147.55 24102.3,-4204.67 23971.3,-4219.67C24031.3,-4250.66 24068.4,-4270.03 24085,-4301.29ZM24331.6,-4262.34C24328.3,-4270.11 24325.6,-4279.8 24323.6,-4290.49C24322,-4298.86 24320.7,-4307.93 24319.8,-4317.01C24304.6,-4299.48 24285.5,-4282.27 24264,-4274.12C24180.8,-4242.55 24140.2,-4258.46 24109.6,-4271.62C24104.2,-4273.94 24099.3,-4276.31 24094.5,-4278.07C24081.2,-4260.77 24061.2,-4246 24033.7,-4229.95C24060.1,-4224.12 24083.6,-4217.45 24106.3,-4212.1C24158.7,-4199.74 24206.3,-4195.38 24280.1,-4232.1C24306.7,-4245.3 24323.9,-4256.78 24331.6,-4262.34Z" style="fill:rgb(44,104,51);"/>
        </g>
        <g transform="matrix(-0.732591,0.248204,0.248204,0.732591,44633.1,-7096.12)">
            <path d="M24085,-4301.29C24068.4,-4270.03 24042.1,-4247.24 23982.1,-4216.25C24093.9,-4161.44 24156.4,-4147.55 24289.3,-4213.63C24361.4,-4249.48 24357.2,-4258.51 24353.7,-4264.05C24339.3,-4286.98 24313.8,-4329.52 24312.8,-4352.24C24308.4,-4344.08 24273,-4298.38 24229.4,-4281.84C24122.4,-4241.25 24121,-4298.23 24085,-4301.29Z" style="fill:rgb(50,137,103);"/>
            <path d="M24085,-4301.29C24068.4,-4270.03 24042.1,-4247.24 23982.1,-4216.25C24093.9,-4161.44 24156.4,-4147.55 24289.3,-4213.63C24361.4,-4249.48 24357.2,-4258.51 24353.7,-4264.05C24339.3,-4286.98 24313.8,-4329.52 24312.8,-4352.24C24308.4,-4344.08 24273,-4298.38 24229.4,-4281.84C24122.4,-4241.25 24121,-4298.23 24085,-4301.29ZM24335,-4261.1C24327.7,-4255.64 24309.9,-4243.34 24281.5,-4229.26C24218.5,-4197.94 24172.4,-4185.08 24128.6,-4187.04C24093.3,-4188.61 24059.8,-4199.67 24020.5,-4217.41C24057.2,-4239.09 24078.3,-4258.21 24092.9,-4280.37C24094.1,-4279.57 24095.3,-4278.7 24096.5,-4277.81C24101,-4274.53 24105.4,-4270.79 24110.4,-4267.23C24131.6,-4252.08 24161.7,-4237.51 24235.6,-4265.52C24263.7,-4276.2 24288.8,-4297.86 24305.8,-4315.94C24314,-4296.91 24325.7,-4276.32 24335,-4261.1Z" style="fill:rgb(50,137,103);"/>
        </g>
        <g transform="matrix(-0.732591,0.248204,0.248204,0.732591,44633.1,-7128.6)">
            <path d="M24085,-4301.29C24068.4,-4270.03 24042.1,-4247.24 23982.1,-4216.25C24093.9,-4161.44 24156.4,-4147.55 24289.3,-4213.63C24361.4,-4249.48 24357.2,-4258.51 24353.7,-4264.05C24339.3,-4286.98 24313.8,-4329.52 24312.8,-4352.24C24308.4,-4344.08 24273,-4298.38 24229.4,-4281.84C24122.4,-4241.25 24121,-4298.23 24085,-4301.29Z" style="fill:rgb(73,184,91);"/>
            <path d="M24085,-4301.29C24068.4,-4270.03 24042.1,-4247.24 23982.1,-4216.25C24093.9,-4161.44 24156.4,-4147.55 24289.3,-4213.63C24361.4,-4249.48 24357.2,-4258.51 24353.7,-4264.05C24339.3,-4286.98 24313.8,-4329.52 24312.8,-4352.24C24308.4,-4344.08 24273,-4298.38 24229.4,-4281.84C24122.4,-4241.25 24121,-4298.23 24085,-4301.29ZM24335,-4261.1C24327.7,-4255.64 24309.9,-4243.34 24281.5,-4229.26C24218.5,-4197.94 24172.4,-4185.08 24128.6,-4187.04C24093.3,-4188.61 24059.8,-4199.67 24020.5,-4217.41C24057.2,-4239.09 24078.3,-4258.21 24092.9,-4280.37C24094.1,-4279.57 24095.3,-4278.7 24096.5,-4277.81C24101,-4274.53 24105.4,-4270.79 24110.4,-4267.23C24131.6,-4252.08 24161.7,-4237.51 24235.6,-4265.52C24263.7,-4276.2 24288.8,-4297.86 24305.8,-4315.94C24314,-4296.91 24325.7,-4276.32 24335,-4261.1Z" style="fill:rgb(44,104,51);"/>
        </g>
        <g transform="matrix(-0.452311,0.0615106,0.0933716,0.686597,37515.4,-3019.59)">
            <path d="M24085,-4301.29C24068.4,-4270.03 24042.1,-4247.24 23982.1,-4216.25C24093.9,-4161.44 24156.4,-4147.55 24289.3,-4213.63C24361.4,-4249.48 24357.2,-4258.51 24353.7,-4264.05C24339.3,-4286.98 24313.8,-4329.52 24312.8,-4352.24C24308.4,-4344.08 24273,-4298.38 24229.4,-4281.84C24122.4,-4241.25 24121,-4298.23 24085,-4301.29Z" style="fill:rgb(50,137,103);"/>
            <path d="M24085,-4301.29C24068.4,-4270.03 24042.1,-4247.24 23982.1,-4216.25C24093.9,-4161.44 24156.4,-4147.55 24289.3,-4213.63C24361.4,-4249.48 24357.2,-4258.51 24353.7,-4264.05C24339.3,-4286.98 24313.8,-4329.52 24312.8,-4352.24C24308.4,-4344.08 24273,-4298.38 24229.4,-4281.84C24122.4,-4241.25 24121,-4298.23 24085,-4301.29ZM24324,-4260.44C24317.9,-4255.92 24300.2,-4243.48 24271.5,-4229.19C24212.8,-4200.03 24170.6,-4187.22 24129.8,-4189.04C24097.2,-4190.5 24066.5,-4200.96 24030.4,-4217.34C24061.7,-4235.65 24081.9,-4252.05 24096.5,-4269.93C24097.3,-4269.36 24098,-4268.79 24098.8,-4268.22C24109.6,-4260.55 24122.4,-4253.76 24139.6,-4250.26C24162.3,-4245.63 24194.8,-4246.22 24244.1,-4264.95C24265.4,-4273 24285,-4286.98 24300.9,-4301.16C24308.4,-4286.32 24317,-4271.69 24324,-4260.44Z" style="fill:rgb(50,137,103);"/>
        </g>
        <g transform="matrix(-0.452311,0.0615106,0.0933716,0.686597,37515.4,-3052.06)">
            <path d="M24085,-4301.29C24068.4,-4270.03 24042.1,-4247.24 23982.1,-4216.25C24093.9,-4161.44 24156.4,-4147.55 24289.3,-4213.63C24361.4,-4249.48 24357.2,-4258.51 24353.7,-4264.05C24339.3,-4286.98 24313.8,-4329.52 24312.8,-4352.24C24308.4,-4344.08 24273,-4298.38 24229.4,-4281.84C24122.4,-4241.25 24121,-4298.23 24085,-4301.29Z" style="fill:rgb(73,184,91);"/>
            <path d="M24085,-4301.29C24068.4,-4270.03 24042.1,-4247.24 23982.1,-4216.25C24093.9,-4161.44 24156.4,-4147.55 24289.3,-4213.63C24361.4,-4249.48 24357.2,-4258.51 24353.7,-4264.05C24339.3,-4286.98 24313.8,-4329.52 24312.8,-4352.24C24308.4,-4344.08 24273,-4298.38 24229.4,-4281.84C24122.4,-4241.25 24121,-4298.23 24085,-4301.29ZM24324,-4260.44C24317.9,-4255.92 24300.2,-4243.48 24271.5,-4229.19C24212.8,-4200.03 24170.6,-4187.22 24129.8,-4189.04C24097.2,-4190.5 24066.5,-4200.96 24030.4,-4217.34C24061.7,-4235.65 24081.9,-4252.05 24096.5,-4269.93C24097.3,-4269.36 24098,-4268.79 24098.8,-4268.22C24109.6,-4260.55 24122.4,-4253.76 24139.6,-4250.26C24162.3,-4245.63 24194.8,-4246.22 24244.1,-4264.95C24265.4,-4273 24285,-4286.98 24300.9,-4301.16C24308.4,-4286.32 24317,-4271.69 24324,-4260.44Z" style="fill:rgb(44,104,51);"/>
        </g>
        <g transform="matrix(1,0,0,1,235.868,-13.1282)">
            <path d="M24520.8,-4217.83C24334.3,-4113.78 24383.9,-4049.97 24280.4,-4002.56C24463,-3952.26 24476.7,-3951.4 24494.3,-3950.3C24481.4,-4014.53 24470,-4052.12 24613,-4143.03C24605.5,-4148.89 24606.7,-4149.36 24520.8,-4217.83Z" style="fill:rgb(50,137,103);"/>
            <path d="M24520.8,-4217.83C24606.7,-4149.36 24605.5,-4148.89 24613,-4143.03C24470,-4052.12 24481.4,-4014.53 24494.3,-3950.3C24476.7,-3951.4 24463,-3952.26 24280.4,-4002.56C24383.9,-4049.97 24334.3,-4113.78 24520.8,-4217.83ZM24519.5,-4201.59C24417.3,-4143.1 24391.8,-4097.91 24367.2,-4061.32C24353.5,-4040.91 24340,-4022.99 24315.9,-4006.81C24420.8,-3978.14 24458.7,-3969.03 24477.5,-3965.78C24473.8,-3985.92 24471.9,-4004.06 24476.2,-4022.72C24483.8,-4056 24511.4,-4092.17 24590.3,-4144.41C24580.1,-4152.87 24560.7,-4168.72 24519.5,-4201.59Z" style="fill:rgb(50,137,103);"/>
        </g>
        <g transform="matrix(1,0,0,1,235.868,-45.6011)">
            <path d="M24520.8,-4217.83C24334.3,-4113.78 24383.9,-4049.97 24280.4,-4002.56C24463,-3952.26 24476.7,-3951.4 24494.3,-3950.3C24481.4,-4014.53 24470,-4052.12 24613,-4143.03C24605.5,-4148.89 24606.7,-4149.36 24520.8,-4217.83Z" style="fill:rgb(73,184,91);"/>
            <path d="M24520.8,-4217.83C24606.7,-4149.36 24605.5,-4148.89 24613,-4143.03C24470,-4052.12 24481.4,-4014.53 24494.3,-3950.3C24476.7,-3951.4 24463,-3952.26 24280.4,-4002.56C24383.9,-4049.97 24334.3,-4113.78 24520.8,-4217.83ZM24519.5,-4201.59C24417.3,-4143.1 24391.8,-4097.91 24367.2,-4061.32C24353.5,-4040.91 24340,-4022.99 24315.9,-4006.81C24420.8,-3978.14 24458.7,-3969.03 24477.5,-3965.78C24473.8,-3985.92 24471.9,-4004.06 24476.2,-4022.72C24483.8,-4056 24511.4,-4092.17 24590.3,-4144.41C24580.1,-4152.87 24560.7,-4168.72 24519.5,-4201.59Z" style="fill:rgb(44,104,51);"/>
        </g>
        <path d="M26347.1,-4390.13C26335.1,-4400.54 26430.3,-4526.62 26403.7,-4394.94C26407.9,-4398.52 26447,-4432.2 26467.4,-4420.47C26482.1,-4412.04 26463.1,-4364.86 26461.3,-4360.37" style="fill:rgb(184,244,137);stroke:rgb(30,81,57);stroke-width:13.5px;"/>
        <path d="M26553.5,-4320.83C26552.8,-4335.07 26590.7,-4394.98 26609.4,-4393.65C26629.2,-4392.26 26604.1,-4336.89 26602.1,-4332.39C26606.3,-4334.18 26646.9,-4351.36 26659.5,-4331.98C26671,-4314.28 26626.3,-4275.03 26622,-4271.27" style="fill:rgb(184,244,137);stroke:rgb(30,81,57);stroke-width:13.5px;"/>
        <path d="M24203.2,-4473.22C24204.5,-4482.78 24217.4,-4582.03 24171.1,-4589.41C24127.8,-4596.32 24118.8,-4496.39 24117.9,-4487.21C24115.7,-4491.24 24089.3,-4539.95 24069.2,-4517.45C24038.3,-4482.97 24072.3,-4445.99 24076.4,-4441.5" style="fill:rgb(184,244,137);stroke:rgb(30,81,57);stroke-width:13.5px;"/>
        <path d="M25770.5,-4542.45C25759.9,-4521.56 25752.4,-4608.25 25788.6,-4629.58C25836.4,-4657.73 25846.3,-4576.3 25847.1,-4569.65C25852.5,-4577.01 25917.2,-4664.17 25941.2,-4634.87C25960.8,-4610.92 25902.7,-4525.13 25897.1,-4516.77" style="fill:rgb(184,244,137);stroke:rgb(30,81,57);stroke-width:13.5px;"/>
        <path d="M23865,-4356.29C23896,-4358.11 23890,-4433.39 23870.3,-4454.39C23864.3,-4460.8 23828.6,-4481.62 23810.1,-4362.48C23761,-4416.94 23732.5,-4360.37 23765.1,-4316.33" style="fill:rgb(184,244,137);stroke:rgb(30,81,57);stroke-width:13.5px;"/>
    </g>
    <defs>
        <linearGradient id="_Linear1" x1="0" y1="0" x2="1" y2="0" gradientUnits="userSpaceOnUse" gradientTransform="matrix(5.71861e-14,933.92,-933.92,5.71861e-14,25319.1,-5940.37)"><stop offset="0" style="stop-color:rgb(186,245,137);stop-opacity:1"/><stop offset="0.53" style="stop-color:rgb(155,220,129);stop-opacity:1"/><stop offset="1" style="stop-color:rgb(50,137,103);stop-opacity:1"/></linearGradient>
    </defs>
</svg>
