<?xml version="1.0" encoding="UTF-8" standalone="no"?>
<!DOCTYPE svg PUBLIC "-//W3C//DTD SVG 1.1//EN" "http://www.w3.org/Graphics/SVG/1.1/DTD/svg11.dtd">
<svg width="100%" height="100%" viewBox="0 0 375 323" version="1.1" xmlns="http://www.w3.org/2000/svg" xmlns:xlink="http://www.w3.org/1999/xlink" xml:space="preserve" xmlns:serif="http://www.serif.com/" style="fill-rule:evenodd;clip-rule:evenodd;stroke-linejoin:round;stroke-miterlimit:2;">
    <g transform="matrix(1,0,0,1,-29309.1,-3315.45)">
        <g transform="matrix(1,0,0,1,106.658,-330.836)">
            <g transform="matrix(0.804229,0.59432,-0.59432,0.804229,8016.35,-16721.6)">
                <path d="M29204,3752.84C29204.9,3749.26 29208,3746.71 29211.7,3746.6C29254.8,3745.37 29297.9,3744.13 29341.2,3743.38C29354.5,3701.65 29368.7,3660.28 29383.5,3619.26C29384.8,3615.76 29388.2,3613.56 29392,3613.91C29420,3616.78 29441.5,3623.89 29446.8,3625.53C29446.9,3626.03 29447.9,3630.99 29449.2,3631.45C29451,3632.1 29458.8,3629.66 29458.9,3629.67C29469.5,3632.53 29492.6,3644.15 29495.4,3645.58C29498.8,3647.3 29500.6,3651.13 29499.7,3654.82C29492.3,3684.31 29484.9,3713.79 29477.1,3743.21C29507.2,3743.76 29537.5,3744.79 29568,3746.45C29571.6,3746.64 29574.6,3749.15 29575.5,3752.63C29584.2,3788.81 29583.9,3825.21 29575.4,3861.81C29574.6,3865.25 29571.6,3867.78 29568.1,3868.06C29524,3871.52 29481.3,3873.31 29439.6,3873.91C29426.5,3915.07 29412.1,3956 29395.7,3996.58C29394.6,3999.36 29392,4001.3 29389,4001.62C29350.8,4005.62 29315.8,3992.83 29282.8,3969.09C29280.1,3967.14 29278.8,3963.76 29279.6,3960.53C29286.9,3930.88 29294.7,3901.43 29302.8,3872.15C29272,3871.05 29241.6,3869.56 29211.3,3867.91C29207.8,3867.72 29204.8,3865.32 29203.9,3861.95C29198.1,3840.76 29198.1,3826.83 29197.2,3823.48C29196.4,3820.66 29209.9,3815.64 29206.8,3810.47C29203.8,3805.59 29193.5,3801.41 29197.7,3795.49C29201,3790.79 29207,3790.45 29201.1,3785.29C29200.3,3784.55 29198.9,3784.22 29198.5,3783.13C29198.5,3783.05 29199.7,3774.17 29200.8,3768.12C29201,3766.89 29202.3,3760.08 29204,3752.84Z" style="fill:rgb(203,139,112);"/>
                <clipPath id="_clip1">
                    <path d="M29204,3752.84C29204.9,3749.26 29208,3746.71 29211.7,3746.6C29254.8,3745.37 29297.9,3744.13 29341.2,3743.38C29354.5,3701.65 29368.7,3660.28 29383.5,3619.26C29384.8,3615.76 29388.2,3613.56 29392,3613.91C29420,3616.78 29441.5,3623.89 29446.8,3625.53C29446.9,3626.03 29447.9,3630.99 29449.2,3631.45C29451,3632.1 29458.8,3629.66 29458.9,3629.67C29469.5,3632.53 29492.6,3644.15 29495.4,3645.58C29498.8,3647.3 29500.6,3651.13 29499.7,3654.82C29492.3,3684.31 29484.9,3713.79 29477.1,3743.21C29507.2,3743.76 29537.5,3744.79 29568,3746.45C29571.6,3746.64 29574.6,3749.15 29575.5,3752.63C29584.2,3788.81 29583.9,3825.21 29575.4,3861.81C29574.6,3865.25 29571.6,3867.78 29568.1,3868.06C29524,3871.52 29481.3,3873.31 29439.6,3873.91C29426.5,3915.07 29412.1,3956 29395.7,3996.58C29394.6,3999.36 29392,4001.3 29389,4001.62C29350.8,4005.62 29315.8,3992.83 29282.8,3969.09C29280.1,3967.14 29278.8,3963.76 29279.6,3960.53C29286.9,3930.88 29294.7,3901.43 29302.8,3872.15C29272,3871.05 29241.6,3869.56 29211.3,3867.91C29207.8,3867.72 29204.8,3865.32 29203.9,3861.95C29198.1,3840.76 29198.1,3826.83 29197.2,3823.48C29196.4,3820.66 29209.9,3815.64 29206.8,3810.47C29203.8,3805.59 29193.5,3801.41 29197.7,3795.49C29201,3790.79 29207,3790.45 29201.1,3785.29C29200.3,3784.55 29198.9,3784.22 29198.5,3783.13C29198.5,3783.05 29199.7,3774.17 29200.8,3768.12C29201,3766.89 29202.3,3760.08 29204,3752.84Z"/>
                </clipPath>
                <g clip-path="url(#_clip1)">
                    <g transform="matrix(0.804229,-0.59432,0.59432,0.804229,3490.98,18212.3)">
                        <path d="M29402.9,3875.6C29483.6,3800.71 29511.4,3803.5 29499.9,3816.03C29448.9,3871.63 29424.6,3877.82 29426.8,3892.06C29427.6,3897.16 29431.6,3898.82 29455.9,3914.57C29462.1,3918.61 29480.9,3931.01 29489.3,3934.96C29530,3954.16 29567.1,3859.83 29570.1,3853.22C29584.5,3910.86 29541.6,3968.74 29519.8,3971.99C29504.2,3974.31 29468.2,3981.11 29402.2,3908.82C29391.7,3897.3 29384.3,3892.87 29402.9,3875.6Z" style="fill:rgb(139,94,110);"/>
                    </g>
                    <g transform="matrix(0.804229,-0.59432,0.59432,0.804229,3490.98,18212.3)">
                        <path d="M29566.1,3728.66C29572.1,3743.9 29578.2,3748.26 29560.9,3762.61C29528.4,3789.6 29276.8,3975.23 29273.5,3974.55C29264.8,3972.77 29235.6,3949.29 29210.5,3914.79C29208.4,3911.93 29194.5,3892.81 29212.9,3870.65C29225.7,3897.63 29259.4,3928.03 29262.3,3930.68C29266.6,3934.72 29269.6,3941.65 29275.5,3942.65C29284.9,3944.27 29453.1,3825.01 29468.3,3814.29C29521.7,3776.43 29523.7,3778.42 29566.1,3728.66Z" style="fill:rgb(139,94,110);"/>
                    </g>
                    <g transform="matrix(0.804229,-0.59432,0.59432,0.804229,3490.98,18212.3)">
                        <path d="M29292.2,3796.39C29284.2,3794 29235,3760.25 29226.3,3749.91C29214.2,3735.54 29217.6,3731.49 29221.7,3713.62C29185.9,3742.53 29211.2,3761.58 29233,3779.91C29266.3,3807.87 29278.5,3816.07 29292.2,3796.39Z" style="fill:rgb(139,94,110);"/>
                    </g>
                    <g transform="matrix(0.804229,-0.59432,0.59432,0.804229,3490.98,18212.3)">
                        <path d="M29478,3697.68C29477.7,3697.94 29477.9,3698.52 29477.6,3698.79C29477.4,3698.91 29448.7,3720.33 29431.9,3732.34C29411.9,3746.6 29371.9,3773.51 29367.3,3776.64C29367.2,3776.74 29367,3776.94 29366.9,3776.97C29366.5,3777 29366.2,3776.76 29365.9,3776.8C29366,3776.49 29365.9,3776.1 29366,3775.8C29366,3775.78 29405.8,3746.39 29426.3,3732C29444.2,3719.34 29476.7,3697.73 29476.8,3697.68C29477.1,3697.49 29477.6,3697.87 29478,3697.68ZM29291.1,3836.22C29274.2,3849.76 29270.5,3852.46 29256.1,3863.15C29247.5,3869.52 29241,3874.01 29238.1,3876.06C29237.5,3876.46 29237.4,3876.58 29237,3876.03C29236.9,3875.96 29236.5,3875.48 29237.1,3875.02C29262.7,3853.75 29262.3,3853.2 29287,3837.26C29288.6,3836.22 29288.6,3836.23 29290.2,3835.2C29290.9,3834.75 29290.5,3835.59 29291.1,3836.22ZM29422.5,3822.81C29382.8,3851.17 29352.1,3873.1 29308.5,3899.76L29298.1,3906.12C29297.7,3906.4 29297.7,3906.01 29297.1,3905.9L29297.4,3904.9C29335.8,3879.48 29335.5,3879.11 29362.8,3860.52C29367.4,3857.34 29383.4,3846.46 29421.5,3821.87C29421.6,3821.81 29421.7,3821.63 29421.8,3821.7C29422.1,3822 29422.2,3822.51 29422.5,3822.81ZM29303.4,3779.64C29303,3779.59 29303.1,3780.79 29302.7,3780.74C29302.7,3780.74 29283.3,3768.63 29271.5,3759.59C29254.6,3746.72 29252,3742.55 29237,3733.21C29236.9,3733.18 29236.8,3733.17 29236.8,3733.1C29236.6,3732.79 29236.6,3732.43 29236.5,3732.12C29236.8,3732.16 29237.1,3731.81 29237.5,3731.85C29237.5,3731.85 29239.7,3733 29241.8,3734.21C29250.9,3739.32 29255.8,3743.43 29268.1,3752.62C29282.8,3763.65 29282.7,3763.76 29303.4,3779.64ZM29488.7,3925.22C29468.3,3914 29465.6,3912.38 29443.7,3895.62C29443.6,3895.59 29443.6,3895.58 29443.6,3895.53C29443.5,3895.21 29443.5,3894.86 29443.4,3894.53L29444.4,3894.35C29469.2,3909.67 29471.5,3911.39 29475.1,3913.83C29480.8,3917.72 29488.2,3923.19 29489.4,3924.02C29490,3924.51 29489.1,3924.48 29488.7,3925.22ZM29496.9,3886.3C29496.6,3886.22 29496.2,3886.53 29495.9,3886.46C29495.9,3886.45 29482.6,3879.45 29474.1,3874.18C29465.4,3868.85 29447,3855.94 29445.8,3853.14C29445.8,3853.12 29445.8,3853.1 29445.8,3853.08C29446,3852.6 29446,3852.63 29446.2,3852.15C29446.5,3852.29 29446.8,3852.42 29447.2,3852.56C29447.2,3852.58 29447.1,3852.63 29447.1,3852.66L29447.2,3852.6C29449.3,3855.27 29465.1,3864.23 29475.7,3871.08C29481.9,3875.03 29496.6,3885.28 29496.6,3885.3C29496.8,3885.57 29496.7,3886.02 29496.9,3886.3ZM29353.2,3755.06C29352.9,3754.9 29352.5,3755.23 29352.2,3755.07C29352,3755 29336.4,3743.64 29328.9,3737.65C29318.6,3729.42 29304.6,3716.91 29299.4,3712.37C29298.9,3711.91 29298.7,3711.79 29299.1,3711.24C29299.4,3710.97 29299.8,3711.04 29300.2,3711.13C29300.2,3711.13 29322.5,3727.73 29331.6,3735.27C29339.7,3742.04 29350.1,3751.38 29350.7,3751.96C29351.5,3752.64 29352.4,3753.22 29353,3754.02C29353.2,3754.3 29353,3754.78 29353.2,3755.06Z" style="fill:rgb(76,47,54);"/>
                    </g>
                </g>
            </g>
            <g transform="matrix(0.804229,0.59432,-0.59432,0.804229,8016.35,-16721.6)">
                <path d="M29280,3972.88L29280,3972.88C29275.8,3969.81 29273.8,3964.49 29275.1,3959.41L29275.1,3959.41C29281.9,3931.64 29289.1,3904.05 29296.7,3876.61C29267.9,3875.52 29239.4,3874.12 29211.1,3872.58C29205.6,3872.28 29200.9,3868.51 29199.4,3863.2L29199.4,3863.18C29193.3,3840.79 29192.7,3821.21 29192.5,3818.95C29198.1,3816.21 29198.4,3816.86 29203.1,3812.95C29202.3,3812.46 29192.1,3806.82 29192.1,3806.8C29192.8,3794.39 29192.8,3794.41 29192.8,3793.81L29192.9,3793.76C29195.9,3791.98 29199,3790.2 29202,3788.42C29199.3,3786.49 29196.5,3784.56 29193.8,3782.63C29194.1,3780.63 29196,3766.47 29199.5,3751.75L29199.5,3751.74C29200.8,3746.12 29205.8,3742.1 29211.6,3741.93C29253.6,3740.73 29295.6,3739.52 29337.8,3738.77C29350.8,3698.06 29364.6,3657.7 29379.1,3617.67C29381.1,3612.16 29386.6,3608.7 29392.4,3609.26L29392.4,3609.26C29419.2,3612.01 29440.3,3618.65 29445.5,3620.22C29450.7,3621.8 29448.2,3623.97 29450.5,3628.95C29456.5,3624.19 29458.1,3623.3 29459.4,3624.66C29460.3,3625.56 29474.6,3629.88 29497.5,3641.41L29497.5,3641.41C29502.9,3644.12 29505.6,3650.14 29504.2,3655.95C29497.3,3683.54 29490.4,3711.12 29483.2,3738.65C29511.3,3739.23 29539.7,3740.23 29568.3,3741.78L29568.3,3741.78C29573.9,3742.09 29578.7,3746.03 29580,3751.51L29580,3751.53C29589,3788.42 29588.6,3825.54 29579.9,3862.86L29579.9,3862.88C29578.7,3868.3 29574,3872.28 29568.5,3872.72L29568.5,3872.72C29525.5,3876.09 29483.8,3877.88 29443,3878.53C29430.2,3918.72 29416.1,3958.7 29400,3998.34L29400,3998.34C29398.3,4002.71 29394.2,4005.75 29389.5,4006.27L29389.5,4006.27C29363.6,4008.98 29343.5,4003.22 29340.7,4002.62C29340.7,4002.62 29339,3996.28 29339,3996.28C29334.6,4000.07 29334.3,4000.89 29328.9,3998.99C29314.5,3993.95 29297.7,3985.6 29280,3972.88ZM29388.5,3996.98C29389.8,3996.83 29390.9,3996.01 29391.4,3994.83C29406.9,3956.39 29420.7,3917.63 29433.2,3878.66C29434.2,3875.54 29435.2,3872.41 29436.2,3869.28C29448.9,3828.97 29460.3,3788.43 29471.1,3747.78C29471.9,3744.68 29472.7,3741.57 29473.6,3738.47C29481,3710.25 29488.1,3681.98 29495.1,3653.69C29495.5,3652.12 29494.8,3650.49 29493.3,3649.75C29473.9,3639.97 29458.8,3634.66 29457.6,3634.16C29456,3633.56 29450.4,3641.84 29445.6,3645.99C29441.8,3630.03 29441.8,3630.1 29441.5,3628.72C29436.2,3627.23 29416.5,3621.13 29391.5,3618.56C29389.9,3618.42 29388.4,3619.36 29387.9,3620.85C29373.8,3659.78 29360.4,3699.03 29347.6,3738.6C29346.6,3741.73 29345.6,3744.86 29344.6,3748C29332,3787.56 29320.1,3827.45 29308.8,3867.69C29308,3870.78 29307.1,3873.87 29306.3,3876.95C29298.5,3905.02 29291.2,3933.24 29284.2,3961.65C29283.8,3963.03 29284.3,3964.47 29285.5,3965.3C29311,3983.63 29330.5,3989.55 29333.7,3990.8C29341,3984.7 29340.6,3984.44 29347.5,3977.98C29347.4,3979.3 29346.1,3993.34 29347.4,3994.57C29347.5,3994.65 29358,3996.89 29367.6,3997.44C29369.3,3997.54 29378.2,3998.06 29388.5,3996.98ZM29208.4,3860.72C29208.8,3862.15 29210.1,3863.17 29211.6,3863.25C29240.6,3864.83 29269.8,3866.26 29299.2,3867.35C29310.4,3827.29 29322.2,3787.57 29334.8,3748.17C29293.7,3748.93 29252.8,3750.1 29211.9,3751.28C29210.3,3751.32 29208.9,3752.41 29208.6,3753.93C29203.1,3776.98 29203.1,3779.05 29203,3779.76C29212.7,3789.6 29214.9,3789.91 29213.7,3789.74C29212.9,3789.62 29203.2,3798.53 29203.7,3799.67C29204.3,3801.4 29210.9,3806.34 29215.5,3813.14C29209.7,3818.16 29203.4,3822.55 29203.2,3822.92C29201.2,3825.45 29205.2,3848.78 29208.4,3860.72ZM29446,3869.13C29485.6,3868.45 29526.1,3866.68 29567.7,3863.4C29569.2,3863.28 29570.5,3862.21 29570.8,3860.74C29579.2,3824.87 29579.5,3789.2 29571,3753.73C29570.6,3752.26 29569.3,3751.2 29567.8,3751.11C29538.5,3749.53 29509.5,3748.52 29480.7,3747.95C29470,3788.49 29458.6,3828.92 29446,3869.13Z" style="fill:rgb(76,47,54);"/>
            </g>
        </g>
    </g>
</svg>
